<?xml version="1.0" encoding="utf-8" standalone="no"?>
<!DOCTYPE svg PUBLIC "-//W3C//DTD SVG 1.1//EN"
  "http://www.w3.org/Graphics/SVG/1.1/DTD/svg11.dtd">
<svg xmlns:xlink="http://www.w3.org/1999/xlink" width="612.165625pt" height="170.754375pt" viewBox="0 0 612.165625 170.754375" xmlns="http://www.w3.org/2000/svg" version="1.1">
 <metadata>
  <rdf:RDF xmlns:dc="http://purl.org/dc/elements/1.1/" xmlns:cc="http://creativecommons.org/ns#" xmlns:rdf="http://www.w3.org/1999/02/22-rdf-syntax-ns#">
   <cc:Work>
    <dc:type rdf:resource="http://purl.org/dc/dcmitype/StillImage"/>
    <dc:date>2025-05-20T16:21:54.272790</dc:date>
    <dc:format>image/svg+xml</dc:format>
    <dc:creator>
     <cc:Agent>
      <dc:title>Matplotlib v3.10.3, https://matplotlib.org/</dc:title>
     </cc:Agent>
    </dc:creator>
   </cc:Work>
  </rdf:RDF>
 </metadata>
 <defs>
  <style type="text/css">*{stroke-linejoin: round; stroke-linecap: butt}</style>
 </defs>
 <g id="figure_1">
  <g id="patch_1">
   <path d="M 0 170.754375 
L 612.165625 170.754375 
L 612.165625 0 
L 0 0 
z
" style="fill: #ffffff"/>
  </g>
  <g id="axes_1">
   <g id="patch_2">
    <path d="M 46.965625 133.198125 
L 300.601989 133.198125 
L 300.601989 22.318125 
L 46.965625 22.318125 
z
" style="fill: #ffffff"/>
   </g>
   <g id="patch_3">
    <path d="M 58.494551 133.198125 
L 66.180501 133.198125 
L 66.180501 133.194737 
L 58.494551 133.194737 
z
" clip-path="url(#p10b5e1bb27)" style="fill: #1f77b4"/>
   </g>
   <g id="patch_4">
    <path d="M 66.180501 133.198125 
L 73.866451 133.198125 
L 73.866451 133.192027 
L 66.180501 133.192027 
z
" clip-path="url(#p10b5e1bb27)" style="fill: #1f77b4"/>
   </g>
   <g id="patch_5">
    <path d="M 73.866451 133.198125 
L 81.552402 133.198125 
L 81.552402 133.189316 
L 73.866451 133.189316 
z
" clip-path="url(#p10b5e1bb27)" style="fill: #1f77b4"/>
   </g>
   <g id="patch_6">
    <path d="M 81.552402 133.198125 
L 89.238351 133.198125 
L 89.238351 133.189994 
L 81.552402 133.189994 
z
" clip-path="url(#p10b5e1bb27)" style="fill: #1f77b4"/>
   </g>
   <g id="patch_7">
    <path d="M 89.238351 133.198125 
L 96.924301 133.198125 
L 96.924301 133.189316 
L 89.238351 133.189316 
z
" clip-path="url(#p10b5e1bb27)" style="fill: #1f77b4"/>
   </g>
   <g id="patch_8">
    <path d="M 96.924301 133.198125 
L 104.610252 133.198125 
L 104.610252 133.181185 
L 96.924301 133.181185 
z
" clip-path="url(#p10b5e1bb27)" style="fill: #1f77b4"/>
   </g>
   <g id="patch_9">
    <path d="M 104.610252 133.198125 
L 112.296203 133.198125 
L 112.296203 133.181185 
L 104.610252 133.181185 
z
" clip-path="url(#p10b5e1bb27)" style="fill: #1f77b4"/>
   </g>
   <g id="patch_10">
    <path d="M 112.296203 133.198125 
L 119.982157 133.198125 
L 119.982157 133.184573 
L 112.296203 133.184573 
z
" clip-path="url(#p10b5e1bb27)" style="fill: #1f77b4"/>
   </g>
   <g id="patch_11">
    <path d="M 119.982157 133.198125 
L 127.668104 133.198125 
L 127.668104 133.181185 
L 119.982157 133.181185 
z
" clip-path="url(#p10b5e1bb27)" style="fill: #1f77b4"/>
   </g>
   <g id="patch_12">
    <path d="M 127.668104 133.198125 
L 135.354058 133.198125 
L 135.354058 133.183218 
L 127.668104 133.183218 
z
" clip-path="url(#p10b5e1bb27)" style="fill: #1f77b4"/>
   </g>
   <g id="patch_13">
    <path d="M 135.354058 133.198125 
L 143.040005 133.198125 
L 143.040005 133.179152 
L 135.354058 133.179152 
z
" clip-path="url(#p10b5e1bb27)" style="fill: #1f77b4"/>
   </g>
   <g id="patch_14">
    <path d="M 143.040005 133.198125 
L 150.725952 133.198125 
L 150.725952 133.177119 
L 143.040005 133.177119 
z
" clip-path="url(#p10b5e1bb27)" style="fill: #1f77b4"/>
   </g>
   <g id="patch_15">
    <path d="M 150.725952 133.198125 
L 158.411906 133.198125 
L 158.411906 133.17983 
L 150.725952 133.17983 
z
" clip-path="url(#p10b5e1bb27)" style="fill: #1f77b4"/>
   </g>
   <g id="patch_16">
    <path d="M 158.411906 133.198125 
L 166.097853 133.198125 
L 166.097853 133.168988 
L 158.411906 133.168988 
z
" clip-path="url(#p10b5e1bb27)" style="fill: #1f77b4"/>
   </g>
   <g id="patch_17">
    <path d="M 166.097853 133.198125 
L 173.783807 133.198125 
L 173.783807 133.171699 
L 166.097853 133.171699 
z
" clip-path="url(#p10b5e1bb27)" style="fill: #1f77b4"/>
   </g>
   <g id="patch_18">
    <path d="M 173.783807 133.198125 
L 181.469762 133.198125 
L 181.469762 133.171021 
L 173.783807 133.171021 
z
" clip-path="url(#p10b5e1bb27)" style="fill: #1f77b4"/>
   </g>
   <g id="patch_19">
    <path d="M 181.469762 133.198125 
L 189.155702 133.198125 
L 189.155702 133.173054 
L 181.469762 133.173054 
z
" clip-path="url(#p10b5e1bb27)" style="fill: #1f77b4"/>
   </g>
   <g id="patch_20">
    <path d="M 189.155702 133.198125 
L 196.841656 133.198125 
L 196.841656 133.150693 
L 189.155702 133.150693 
z
" clip-path="url(#p10b5e1bb27)" style="fill: #1f77b4"/>
   </g>
   <g id="patch_21">
    <path d="M 196.841656 133.198125 
L 204.52761 133.198125 
L 204.52761 133.142562 
L 196.841656 133.142562 
z
" clip-path="url(#p10b5e1bb27)" style="fill: #1f77b4"/>
   </g>
   <g id="patch_22">
    <path d="M 204.52761 133.198125 
L 212.213564 133.198125 
L 212.213564 133.110715 
L 204.52761 133.110715 
z
" clip-path="url(#p10b5e1bb27)" style="fill: #1f77b4"/>
   </g>
   <g id="patch_23">
    <path d="M 212.213564 133.198125 
L 219.899504 133.198125 
L 219.899504 133.13172 
L 212.213564 133.13172 
z
" clip-path="url(#p10b5e1bb27)" style="fill: #1f77b4"/>
   </g>
   <g id="patch_24">
    <path d="M 219.899504 133.198125 
L 227.585458 133.198125 
L 227.585458 133.069382 
L 219.899504 133.069382 
z
" clip-path="url(#p10b5e1bb27)" style="fill: #1f77b4"/>
   </g>
   <g id="patch_25">
    <path d="M 227.585458 133.198125 
L 235.271412 133.198125 
L 235.271412 132.962999 
L 227.585458 132.962999 
z
" clip-path="url(#p10b5e1bb27)" style="fill: #1f77b4"/>
   </g>
   <g id="patch_26">
    <path d="M 235.271412 133.198125 
L 242.957367 133.198125 
L 242.957367 132.808507 
L 235.271412 132.808507 
z
" clip-path="url(#p10b5e1bb27)" style="fill: #1f77b4"/>
   </g>
   <g id="patch_27">
    <path d="M 242.957367 133.198125 
L 250.643306 133.198125 
L 250.643306 132.647238 
L 242.957367 132.647238 
z
" clip-path="url(#p10b5e1bb27)" style="fill: #1f77b4"/>
   </g>
   <g id="patch_28">
    <path d="M 250.643306 133.198125 
L 258.329261 133.198125 
L 258.329261 132.154627 
L 250.643306 132.154627 
z
" clip-path="url(#p10b5e1bb27)" style="fill: #1f77b4"/>
   </g>
   <g id="patch_29">
    <path d="M 258.329261 133.198125 
L 266.015215 133.198125 
L 266.015215 131.340833 
L 258.329261 131.340833 
z
" clip-path="url(#p10b5e1bb27)" style="fill: #1f77b4"/>
   </g>
   <g id="patch_30">
    <path d="M 266.015215 133.198125 
L 273.701169 133.198125 
L 273.701169 130.386778 
L 266.015215 130.386778 
z
" clip-path="url(#p10b5e1bb27)" style="fill: #1f77b4"/>
   </g>
   <g id="patch_31">
    <path d="M 273.701169 133.198125 
L 281.387109 133.198125 
L 281.387109 128.919774 
L 273.701169 128.919774 
z
" clip-path="url(#p10b5e1bb27)" style="fill: #1f77b4"/>
   </g>
   <g id="patch_32">
    <path d="M 281.387109 133.198125 
L 289.073063 133.198125 
L 289.073063 27.598125 
L 281.387109 27.598125 
z
" clip-path="url(#p10b5e1bb27)" style="fill: #1f77b4"/>
   </g>
   <g id="matplotlib.axis_1">
    <g id="xtick_1">
     <g id="line2d_1">
      <defs>
       <path id="m84e34b1627" d="M 0 0 
L 0 3.5 
" style="stroke: #000000; stroke-width: 0.8"/>
      </defs>
      <g>
       <use xlink:href="#m84e34b1627" x="57.131007" y="133.198125" style="stroke: #000000; stroke-width: 0.8"/>
      </g>
     </g>
     <g id="text_1">
      <!-- 0.00 -->
      <g transform="translate(45.998194 147.796563) scale(0.1 -0.1)">
       <defs>
        <path id="DejaVuSans-30" d="M 2034 4250 
Q 1547 4250 1301 3770 
Q 1056 3291 1056 2328 
Q 1056 1369 1301 889 
Q 1547 409 2034 409 
Q 2525 409 2770 889 
Q 3016 1369 3016 2328 
Q 3016 3291 2770 3770 
Q 2525 4250 2034 4250 
z
M 2034 4750 
Q 2819 4750 3233 4129 
Q 3647 3509 3647 2328 
Q 3647 1150 3233 529 
Q 2819 -91 2034 -91 
Q 1250 -91 836 529 
Q 422 1150 422 2328 
Q 422 3509 836 4129 
Q 1250 4750 2034 4750 
z
" transform="scale(0.015625)"/>
        <path id="DejaVuSans-2e" d="M 684 794 
L 1344 794 
L 1344 0 
L 684 0 
L 684 794 
z
" transform="scale(0.015625)"/>
       </defs>
       <use xlink:href="#DejaVuSans-30"/>
       <use xlink:href="#DejaVuSans-2e" transform="translate(63.623047 0)"/>
       <use xlink:href="#DejaVuSans-30" transform="translate(95.410156 0)"/>
       <use xlink:href="#DejaVuSans-30" transform="translate(159.033203 0)"/>
      </g>
     </g>
    </g>
    <g id="xtick_2">
     <g id="line2d_2">
      <g>
       <use xlink:href="#m84e34b1627" x="95.788017" y="133.198125" style="stroke: #000000; stroke-width: 0.8"/>
      </g>
     </g>
     <g id="text_2">
      <!-- 0.02 -->
      <g transform="translate(84.655204 147.796563) scale(0.1 -0.1)">
       <defs>
        <path id="DejaVuSans-32" d="M 1228 531 
L 3431 531 
L 3431 0 
L 469 0 
L 469 531 
Q 828 903 1448 1529 
Q 2069 2156 2228 2338 
Q 2531 2678 2651 2914 
Q 2772 3150 2772 3378 
Q 2772 3750 2511 3984 
Q 2250 4219 1831 4219 
Q 1534 4219 1204 4116 
Q 875 4013 500 3803 
L 500 4441 
Q 881 4594 1212 4672 
Q 1544 4750 1819 4750 
Q 2544 4750 2975 4387 
Q 3406 4025 3406 3419 
Q 3406 3131 3298 2873 
Q 3191 2616 2906 2266 
Q 2828 2175 2409 1742 
Q 1991 1309 1228 531 
z
" transform="scale(0.015625)"/>
       </defs>
       <use xlink:href="#DejaVuSans-30"/>
       <use xlink:href="#DejaVuSans-2e" transform="translate(63.623047 0)"/>
       <use xlink:href="#DejaVuSans-30" transform="translate(95.410156 0)"/>
       <use xlink:href="#DejaVuSans-32" transform="translate(159.033203 0)"/>
      </g>
     </g>
    </g>
    <g id="xtick_3">
     <g id="line2d_3">
      <g>
       <use xlink:href="#m84e34b1627" x="134.445027" y="133.198125" style="stroke: #000000; stroke-width: 0.8"/>
      </g>
     </g>
     <g id="text_3">
      <!-- 0.04 -->
      <g transform="translate(123.312215 147.796563) scale(0.1 -0.1)">
       <defs>
        <path id="DejaVuSans-34" d="M 2419 4116 
L 825 1625 
L 2419 1625 
L 2419 4116 
z
M 2253 4666 
L 3047 4666 
L 3047 1625 
L 3713 1625 
L 3713 1100 
L 3047 1100 
L 3047 0 
L 2419 0 
L 2419 1100 
L 313 1100 
L 313 1709 
L 2253 4666 
z
" transform="scale(0.015625)"/>
       </defs>
       <use xlink:href="#DejaVuSans-30"/>
       <use xlink:href="#DejaVuSans-2e" transform="translate(63.623047 0)"/>
       <use xlink:href="#DejaVuSans-30" transform="translate(95.410156 0)"/>
       <use xlink:href="#DejaVuSans-34" transform="translate(159.033203 0)"/>
      </g>
     </g>
    </g>
    <g id="xtick_4">
     <g id="line2d_4">
      <g>
       <use xlink:href="#m84e34b1627" x="173.102037" y="133.198125" style="stroke: #000000; stroke-width: 0.8"/>
      </g>
     </g>
     <g id="text_4">
      <!-- 0.06 -->
      <g transform="translate(161.969225 147.796563) scale(0.1 -0.1)">
       <defs>
        <path id="DejaVuSans-36" d="M 2113 2584 
Q 1688 2584 1439 2293 
Q 1191 2003 1191 1497 
Q 1191 994 1439 701 
Q 1688 409 2113 409 
Q 2538 409 2786 701 
Q 3034 994 3034 1497 
Q 3034 2003 2786 2293 
Q 2538 2584 2113 2584 
z
M 3366 4563 
L 3366 3988 
Q 3128 4100 2886 4159 
Q 2644 4219 2406 4219 
Q 1781 4219 1451 3797 
Q 1122 3375 1075 2522 
Q 1259 2794 1537 2939 
Q 1816 3084 2150 3084 
Q 2853 3084 3261 2657 
Q 3669 2231 3669 1497 
Q 3669 778 3244 343 
Q 2819 -91 2113 -91 
Q 1303 -91 875 529 
Q 447 1150 447 2328 
Q 447 3434 972 4092 
Q 1497 4750 2381 4750 
Q 2619 4750 2861 4703 
Q 3103 4656 3366 4563 
z
" transform="scale(0.015625)"/>
       </defs>
       <use xlink:href="#DejaVuSans-30"/>
       <use xlink:href="#DejaVuSans-2e" transform="translate(63.623047 0)"/>
       <use xlink:href="#DejaVuSans-30" transform="translate(95.410156 0)"/>
       <use xlink:href="#DejaVuSans-36" transform="translate(159.033203 0)"/>
      </g>
     </g>
    </g>
    <g id="xtick_5">
     <g id="line2d_5">
      <g>
       <use xlink:href="#m84e34b1627" x="211.759048" y="133.198125" style="stroke: #000000; stroke-width: 0.8"/>
      </g>
     </g>
     <g id="text_5">
      <!-- 0.08 -->
      <g transform="translate(200.626235 147.796563) scale(0.1 -0.1)">
       <defs>
        <path id="DejaVuSans-38" d="M 2034 2216 
Q 1584 2216 1326 1975 
Q 1069 1734 1069 1313 
Q 1069 891 1326 650 
Q 1584 409 2034 409 
Q 2484 409 2743 651 
Q 3003 894 3003 1313 
Q 3003 1734 2745 1975 
Q 2488 2216 2034 2216 
z
M 1403 2484 
Q 997 2584 770 2862 
Q 544 3141 544 3541 
Q 544 4100 942 4425 
Q 1341 4750 2034 4750 
Q 2731 4750 3128 4425 
Q 3525 4100 3525 3541 
Q 3525 3141 3298 2862 
Q 3072 2584 2669 2484 
Q 3125 2378 3379 2068 
Q 3634 1759 3634 1313 
Q 3634 634 3220 271 
Q 2806 -91 2034 -91 
Q 1263 -91 848 271 
Q 434 634 434 1313 
Q 434 1759 690 2068 
Q 947 2378 1403 2484 
z
M 1172 3481 
Q 1172 3119 1398 2916 
Q 1625 2713 2034 2713 
Q 2441 2713 2670 2916 
Q 2900 3119 2900 3481 
Q 2900 3844 2670 4047 
Q 2441 4250 2034 4250 
Q 1625 4250 1398 4047 
Q 1172 3844 1172 3481 
z
" transform="scale(0.015625)"/>
       </defs>
       <use xlink:href="#DejaVuSans-30"/>
       <use xlink:href="#DejaVuSans-2e" transform="translate(63.623047 0)"/>
       <use xlink:href="#DejaVuSans-30" transform="translate(95.410156 0)"/>
       <use xlink:href="#DejaVuSans-38" transform="translate(159.033203 0)"/>
      </g>
     </g>
    </g>
    <g id="xtick_6">
     <g id="line2d_6">
      <g>
       <use xlink:href="#m84e34b1627" x="250.416058" y="133.198125" style="stroke: #000000; stroke-width: 0.8"/>
      </g>
     </g>
     <g id="text_6">
      <!-- 0.10 -->
      <g transform="translate(239.283245 147.796563) scale(0.1 -0.1)">
       <defs>
        <path id="DejaVuSans-31" d="M 794 531 
L 1825 531 
L 1825 4091 
L 703 3866 
L 703 4441 
L 1819 4666 
L 2450 4666 
L 2450 531 
L 3481 531 
L 3481 0 
L 794 0 
L 794 531 
z
" transform="scale(0.015625)"/>
       </defs>
       <use xlink:href="#DejaVuSans-30"/>
       <use xlink:href="#DejaVuSans-2e" transform="translate(63.623047 0)"/>
       <use xlink:href="#DejaVuSans-31" transform="translate(95.410156 0)"/>
       <use xlink:href="#DejaVuSans-30" transform="translate(159.033203 0)"/>
      </g>
     </g>
    </g>
    <g id="xtick_7">
     <g id="line2d_7">
      <g>
       <use xlink:href="#m84e34b1627" x="289.073068" y="133.198125" style="stroke: #000000; stroke-width: 0.8"/>
      </g>
     </g>
     <g id="text_7">
      <!-- 0.12 -->
      <g transform="translate(277.940256 147.796563) scale(0.1 -0.1)">
       <use xlink:href="#DejaVuSans-30"/>
       <use xlink:href="#DejaVuSans-2e" transform="translate(63.623047 0)"/>
       <use xlink:href="#DejaVuSans-31" transform="translate(95.410156 0)"/>
       <use xlink:href="#DejaVuSans-32" transform="translate(159.033203 0)"/>
      </g>
     </g>
    </g>
    <g id="text_8">
     <!-- speed [m/s] -->
     <g transform="translate(144.027557 161.474688) scale(0.1 -0.1)">
      <defs>
       <path id="DejaVuSans-73" d="M 2834 3397 
L 2834 2853 
Q 2591 2978 2328 3040 
Q 2066 3103 1784 3103 
Q 1356 3103 1142 2972 
Q 928 2841 928 2578 
Q 928 2378 1081 2264 
Q 1234 2150 1697 2047 
L 1894 2003 
Q 2506 1872 2764 1633 
Q 3022 1394 3022 966 
Q 3022 478 2636 193 
Q 2250 -91 1575 -91 
Q 1294 -91 989 -36 
Q 684 19 347 128 
L 347 722 
Q 666 556 975 473 
Q 1284 391 1588 391 
Q 1994 391 2212 530 
Q 2431 669 2431 922 
Q 2431 1156 2273 1281 
Q 2116 1406 1581 1522 
L 1381 1569 
Q 847 1681 609 1914 
Q 372 2147 372 2553 
Q 372 3047 722 3315 
Q 1072 3584 1716 3584 
Q 2034 3584 2315 3537 
Q 2597 3491 2834 3397 
z
" transform="scale(0.015625)"/>
       <path id="DejaVuSans-70" d="M 1159 525 
L 1159 -1331 
L 581 -1331 
L 581 3500 
L 1159 3500 
L 1159 2969 
Q 1341 3281 1617 3432 
Q 1894 3584 2278 3584 
Q 2916 3584 3314 3078 
Q 3713 2572 3713 1747 
Q 3713 922 3314 415 
Q 2916 -91 2278 -91 
Q 1894 -91 1617 61 
Q 1341 213 1159 525 
z
M 3116 1747 
Q 3116 2381 2855 2742 
Q 2594 3103 2138 3103 
Q 1681 3103 1420 2742 
Q 1159 2381 1159 1747 
Q 1159 1113 1420 752 
Q 1681 391 2138 391 
Q 2594 391 2855 752 
Q 3116 1113 3116 1747 
z
" transform="scale(0.015625)"/>
       <path id="DejaVuSans-65" d="M 3597 1894 
L 3597 1613 
L 953 1613 
Q 991 1019 1311 708 
Q 1631 397 2203 397 
Q 2534 397 2845 478 
Q 3156 559 3463 722 
L 3463 178 
Q 3153 47 2828 -22 
Q 2503 -91 2169 -91 
Q 1331 -91 842 396 
Q 353 884 353 1716 
Q 353 2575 817 3079 
Q 1281 3584 2069 3584 
Q 2775 3584 3186 3129 
Q 3597 2675 3597 1894 
z
M 3022 2063 
Q 3016 2534 2758 2815 
Q 2500 3097 2075 3097 
Q 1594 3097 1305 2825 
Q 1016 2553 972 2059 
L 3022 2063 
z
" transform="scale(0.015625)"/>
       <path id="DejaVuSans-64" d="M 2906 2969 
L 2906 4863 
L 3481 4863 
L 3481 0 
L 2906 0 
L 2906 525 
Q 2725 213 2448 61 
Q 2172 -91 1784 -91 
Q 1150 -91 751 415 
Q 353 922 353 1747 
Q 353 2572 751 3078 
Q 1150 3584 1784 3584 
Q 2172 3584 2448 3432 
Q 2725 3281 2906 2969 
z
M 947 1747 
Q 947 1113 1208 752 
Q 1469 391 1925 391 
Q 2381 391 2643 752 
Q 2906 1113 2906 1747 
Q 2906 2381 2643 2742 
Q 2381 3103 1925 3103 
Q 1469 3103 1208 2742 
Q 947 2381 947 1747 
z
" transform="scale(0.015625)"/>
       <path id="DejaVuSans-20" transform="scale(0.015625)"/>
       <path id="DejaVuSans-5b" d="M 550 4863 
L 1875 4863 
L 1875 4416 
L 1125 4416 
L 1125 -397 
L 1875 -397 
L 1875 -844 
L 550 -844 
L 550 4863 
z
" transform="scale(0.015625)"/>
       <path id="DejaVuSans-6d" d="M 3328 2828 
Q 3544 3216 3844 3400 
Q 4144 3584 4550 3584 
Q 5097 3584 5394 3201 
Q 5691 2819 5691 2113 
L 5691 0 
L 5113 0 
L 5113 2094 
Q 5113 2597 4934 2840 
Q 4756 3084 4391 3084 
Q 3944 3084 3684 2787 
Q 3425 2491 3425 1978 
L 3425 0 
L 2847 0 
L 2847 2094 
Q 2847 2600 2669 2842 
Q 2491 3084 2119 3084 
Q 1678 3084 1418 2786 
Q 1159 2488 1159 1978 
L 1159 0 
L 581 0 
L 581 3500 
L 1159 3500 
L 1159 2956 
Q 1356 3278 1631 3431 
Q 1906 3584 2284 3584 
Q 2666 3584 2933 3390 
Q 3200 3197 3328 2828 
z
" transform="scale(0.015625)"/>
       <path id="DejaVuSans-2f" d="M 1625 4666 
L 2156 4666 
L 531 -594 
L 0 -594 
L 1625 4666 
z
" transform="scale(0.015625)"/>
       <path id="DejaVuSans-5d" d="M 1947 4863 
L 1947 -844 
L 622 -844 
L 622 -397 
L 1369 -397 
L 1369 4416 
L 622 4416 
L 622 4863 
L 1947 4863 
z
" transform="scale(0.015625)"/>
      </defs>
      <use xlink:href="#DejaVuSans-73"/>
      <use xlink:href="#DejaVuSans-70" transform="translate(52.099609 0)"/>
      <use xlink:href="#DejaVuSans-65" transform="translate(115.576172 0)"/>
      <use xlink:href="#DejaVuSans-65" transform="translate(177.099609 0)"/>
      <use xlink:href="#DejaVuSans-64" transform="translate(238.623047 0)"/>
      <use xlink:href="#DejaVuSans-20" transform="translate(302.099609 0)"/>
      <use xlink:href="#DejaVuSans-5b" transform="translate(333.886719 0)"/>
      <use xlink:href="#DejaVuSans-6d" transform="translate(372.900391 0)"/>
      <use xlink:href="#DejaVuSans-2f" transform="translate(470.3125 0)"/>
      <use xlink:href="#DejaVuSans-73" transform="translate(504.003906 0)"/>
      <use xlink:href="#DejaVuSans-5d" transform="translate(556.103516 0)"/>
     </g>
    </g>
   </g>
   <g id="matplotlib.axis_2">
    <g id="ytick_1">
     <g id="line2d_8">
      <defs>
       <path id="m09f44b66ce" d="M 0 0 
L -3.5 0 
" style="stroke: #000000; stroke-width: 0.8"/>
      </defs>
      <g>
       <use xlink:href="#m09f44b66ce" x="46.965625" y="133.198125" style="stroke: #000000; stroke-width: 0.8"/>
      </g>
     </g>
     <g id="text_9">
      <!-- 0 -->
      <g transform="translate(33.603125 136.997344) scale(0.1 -0.1)">
       <use xlink:href="#DejaVuSans-30"/>
      </g>
     </g>
    </g>
    <g id="ytick_2">
     <g id="line2d_9">
      <g>
       <use xlink:href="#m09f44b66ce" x="46.965625" y="109.849749" style="stroke: #000000; stroke-width: 0.8"/>
      </g>
     </g>
     <g id="text_10">
      <!-- 50 -->
      <g transform="translate(27.240625 113.648968) scale(0.1 -0.1)">
       <defs>
        <path id="DejaVuSans-35" d="M 691 4666 
L 3169 4666 
L 3169 4134 
L 1269 4134 
L 1269 2991 
Q 1406 3038 1543 3061 
Q 1681 3084 1819 3084 
Q 2600 3084 3056 2656 
Q 3513 2228 3513 1497 
Q 3513 744 3044 326 
Q 2575 -91 1722 -91 
Q 1428 -91 1123 -41 
Q 819 9 494 109 
L 494 744 
Q 775 591 1075 516 
Q 1375 441 1709 441 
Q 2250 441 2565 725 
Q 2881 1009 2881 1497 
Q 2881 1984 2565 2268 
Q 2250 2553 1709 2553 
Q 1456 2553 1204 2497 
Q 953 2441 691 2322 
L 691 4666 
z
" transform="scale(0.015625)"/>
       </defs>
       <use xlink:href="#DejaVuSans-35"/>
       <use xlink:href="#DejaVuSans-30" transform="translate(63.623047 0)"/>
      </g>
     </g>
    </g>
    <g id="ytick_3">
     <g id="line2d_10">
      <g>
       <use xlink:href="#m09f44b66ce" x="46.965625" y="86.501373" style="stroke: #000000; stroke-width: 0.8"/>
      </g>
     </g>
     <g id="text_11">
      <!-- 100 -->
      <g transform="translate(20.878125 90.300592) scale(0.1 -0.1)">
       <use xlink:href="#DejaVuSans-31"/>
       <use xlink:href="#DejaVuSans-30" transform="translate(63.623047 0)"/>
       <use xlink:href="#DejaVuSans-30" transform="translate(127.246094 0)"/>
      </g>
     </g>
    </g>
    <g id="ytick_4">
     <g id="line2d_11">
      <g>
       <use xlink:href="#m09f44b66ce" x="46.965625" y="63.152997" style="stroke: #000000; stroke-width: 0.8"/>
      </g>
     </g>
     <g id="text_12">
      <!-- 150 -->
      <g transform="translate(20.878125 66.952216) scale(0.1 -0.1)">
       <use xlink:href="#DejaVuSans-31"/>
       <use xlink:href="#DejaVuSans-35" transform="translate(63.623047 0)"/>
       <use xlink:href="#DejaVuSans-30" transform="translate(127.246094 0)"/>
      </g>
     </g>
    </g>
    <g id="ytick_5">
     <g id="line2d_12">
      <g>
       <use xlink:href="#m09f44b66ce" x="46.965625" y="39.804621" style="stroke: #000000; stroke-width: 0.8"/>
      </g>
     </g>
     <g id="text_13">
      <!-- 200 -->
      <g transform="translate(20.878125 43.60384) scale(0.1 -0.1)">
       <use xlink:href="#DejaVuSans-32"/>
       <use xlink:href="#DejaVuSans-30" transform="translate(63.623047 0)"/>
       <use xlink:href="#DejaVuSans-30" transform="translate(127.246094 0)"/>
      </g>
     </g>
    </g>
    <g id="text_14">
     <!-- probability -->
     <g transform="translate(14.798437 104.433906) rotate(-90) scale(0.1 -0.1)">
      <defs>
       <path id="DejaVuSans-72" d="M 2631 2963 
Q 2534 3019 2420 3045 
Q 2306 3072 2169 3072 
Q 1681 3072 1420 2755 
Q 1159 2438 1159 1844 
L 1159 0 
L 581 0 
L 581 3500 
L 1159 3500 
L 1159 2956 
Q 1341 3275 1631 3429 
Q 1922 3584 2338 3584 
Q 2397 3584 2469 3576 
Q 2541 3569 2628 3553 
L 2631 2963 
z
" transform="scale(0.015625)"/>
       <path id="DejaVuSans-6f" d="M 1959 3097 
Q 1497 3097 1228 2736 
Q 959 2375 959 1747 
Q 959 1119 1226 758 
Q 1494 397 1959 397 
Q 2419 397 2687 759 
Q 2956 1122 2956 1747 
Q 2956 2369 2687 2733 
Q 2419 3097 1959 3097 
z
M 1959 3584 
Q 2709 3584 3137 3096 
Q 3566 2609 3566 1747 
Q 3566 888 3137 398 
Q 2709 -91 1959 -91 
Q 1206 -91 779 398 
Q 353 888 353 1747 
Q 353 2609 779 3096 
Q 1206 3584 1959 3584 
z
" transform="scale(0.015625)"/>
       <path id="DejaVuSans-62" d="M 3116 1747 
Q 3116 2381 2855 2742 
Q 2594 3103 2138 3103 
Q 1681 3103 1420 2742 
Q 1159 2381 1159 1747 
Q 1159 1113 1420 752 
Q 1681 391 2138 391 
Q 2594 391 2855 752 
Q 3116 1113 3116 1747 
z
M 1159 2969 
Q 1341 3281 1617 3432 
Q 1894 3584 2278 3584 
Q 2916 3584 3314 3078 
Q 3713 2572 3713 1747 
Q 3713 922 3314 415 
Q 2916 -91 2278 -91 
Q 1894 -91 1617 61 
Q 1341 213 1159 525 
L 1159 0 
L 581 0 
L 581 4863 
L 1159 4863 
L 1159 2969 
z
" transform="scale(0.015625)"/>
       <path id="DejaVuSans-61" d="M 2194 1759 
Q 1497 1759 1228 1600 
Q 959 1441 959 1056 
Q 959 750 1161 570 
Q 1363 391 1709 391 
Q 2188 391 2477 730 
Q 2766 1069 2766 1631 
L 2766 1759 
L 2194 1759 
z
M 3341 1997 
L 3341 0 
L 2766 0 
L 2766 531 
Q 2569 213 2275 61 
Q 1981 -91 1556 -91 
Q 1019 -91 701 211 
Q 384 513 384 1019 
Q 384 1609 779 1909 
Q 1175 2209 1959 2209 
L 2766 2209 
L 2766 2266 
Q 2766 2663 2505 2880 
Q 2244 3097 1772 3097 
Q 1472 3097 1187 3025 
Q 903 2953 641 2809 
L 641 3341 
Q 956 3463 1253 3523 
Q 1550 3584 1831 3584 
Q 2591 3584 2966 3190 
Q 3341 2797 3341 1997 
z
" transform="scale(0.015625)"/>
       <path id="DejaVuSans-69" d="M 603 3500 
L 1178 3500 
L 1178 0 
L 603 0 
L 603 3500 
z
M 603 4863 
L 1178 4863 
L 1178 4134 
L 603 4134 
L 603 4863 
z
" transform="scale(0.015625)"/>
       <path id="DejaVuSans-6c" d="M 603 4863 
L 1178 4863 
L 1178 0 
L 603 0 
L 603 4863 
z
" transform="scale(0.015625)"/>
       <path id="DejaVuSans-74" d="M 1172 4494 
L 1172 3500 
L 2356 3500 
L 2356 3053 
L 1172 3053 
L 1172 1153 
Q 1172 725 1289 603 
Q 1406 481 1766 481 
L 2356 481 
L 2356 0 
L 1766 0 
Q 1100 0 847 248 
Q 594 497 594 1153 
L 594 3053 
L 172 3053 
L 172 3500 
L 594 3500 
L 594 4494 
L 1172 4494 
z
" transform="scale(0.015625)"/>
       <path id="DejaVuSans-79" d="M 2059 -325 
Q 1816 -950 1584 -1140 
Q 1353 -1331 966 -1331 
L 506 -1331 
L 506 -850 
L 844 -850 
Q 1081 -850 1212 -737 
Q 1344 -625 1503 -206 
L 1606 56 
L 191 3500 
L 800 3500 
L 1894 763 
L 2988 3500 
L 3597 3500 
L 2059 -325 
z
" transform="scale(0.015625)"/>
      </defs>
      <use xlink:href="#DejaVuSans-70"/>
      <use xlink:href="#DejaVuSans-72" transform="translate(63.476562 0)"/>
      <use xlink:href="#DejaVuSans-6f" transform="translate(102.339844 0)"/>
      <use xlink:href="#DejaVuSans-62" transform="translate(163.521484 0)"/>
      <use xlink:href="#DejaVuSans-61" transform="translate(226.998047 0)"/>
      <use xlink:href="#DejaVuSans-62" transform="translate(288.277344 0)"/>
      <use xlink:href="#DejaVuSans-69" transform="translate(351.753906 0)"/>
      <use xlink:href="#DejaVuSans-6c" transform="translate(379.537109 0)"/>
      <use xlink:href="#DejaVuSans-69" transform="translate(407.320312 0)"/>
      <use xlink:href="#DejaVuSans-74" transform="translate(435.103516 0)"/>
      <use xlink:href="#DejaVuSans-79" transform="translate(474.3125 0)"/>
     </g>
    </g>
   </g>
   <g id="patch_33">
    <path d="M 46.965625 133.198125 
L 46.965625 22.318125 
" style="fill: none; stroke: #000000; stroke-width: 0.8; stroke-linejoin: miter; stroke-linecap: square"/>
   </g>
   <g id="patch_34">
    <path d="M 300.601989 133.198125 
L 300.601989 22.318125 
" style="fill: none; stroke: #000000; stroke-width: 0.8; stroke-linejoin: miter; stroke-linecap: square"/>
   </g>
   <g id="patch_35">
    <path d="M 46.965625 133.198125 
L 300.601989 133.198125 
" style="fill: none; stroke: #000000; stroke-width: 0.8; stroke-linejoin: miter; stroke-linecap: square"/>
   </g>
   <g id="patch_36">
    <path d="M 46.965625 22.318125 
L 300.601989 22.318125 
" style="fill: none; stroke: #000000; stroke-width: 0.8; stroke-linejoin: miter; stroke-linecap: square"/>
   </g>
   <g id="text_15">
    <!-- ego speed distribution -->
    <g transform="translate(106.478807 16.318125) scale(0.12 -0.12)">
     <defs>
      <path id="DejaVuSans-67" d="M 2906 1791 
Q 2906 2416 2648 2759 
Q 2391 3103 1925 3103 
Q 1463 3103 1205 2759 
Q 947 2416 947 1791 
Q 947 1169 1205 825 
Q 1463 481 1925 481 
Q 2391 481 2648 825 
Q 2906 1169 2906 1791 
z
M 3481 434 
Q 3481 -459 3084 -895 
Q 2688 -1331 1869 -1331 
Q 1566 -1331 1297 -1286 
Q 1028 -1241 775 -1147 
L 775 -588 
Q 1028 -725 1275 -790 
Q 1522 -856 1778 -856 
Q 2344 -856 2625 -561 
Q 2906 -266 2906 331 
L 2906 616 
Q 2728 306 2450 153 
Q 2172 0 1784 0 
Q 1141 0 747 490 
Q 353 981 353 1791 
Q 353 2603 747 3093 
Q 1141 3584 1784 3584 
Q 2172 3584 2450 3431 
Q 2728 3278 2906 2969 
L 2906 3500 
L 3481 3500 
L 3481 434 
z
" transform="scale(0.015625)"/>
      <path id="DejaVuSans-75" d="M 544 1381 
L 544 3500 
L 1119 3500 
L 1119 1403 
Q 1119 906 1312 657 
Q 1506 409 1894 409 
Q 2359 409 2629 706 
Q 2900 1003 2900 1516 
L 2900 3500 
L 3475 3500 
L 3475 0 
L 2900 0 
L 2900 538 
Q 2691 219 2414 64 
Q 2138 -91 1772 -91 
Q 1169 -91 856 284 
Q 544 659 544 1381 
z
M 1991 3584 
L 1991 3584 
z
" transform="scale(0.015625)"/>
      <path id="DejaVuSans-6e" d="M 3513 2113 
L 3513 0 
L 2938 0 
L 2938 2094 
Q 2938 2591 2744 2837 
Q 2550 3084 2163 3084 
Q 1697 3084 1428 2787 
Q 1159 2491 1159 1978 
L 1159 0 
L 581 0 
L 581 3500 
L 1159 3500 
L 1159 2956 
Q 1366 3272 1645 3428 
Q 1925 3584 2291 3584 
Q 2894 3584 3203 3211 
Q 3513 2838 3513 2113 
z
" transform="scale(0.015625)"/>
     </defs>
     <use xlink:href="#DejaVuSans-65"/>
     <use xlink:href="#DejaVuSans-67" transform="translate(61.523438 0)"/>
     <use xlink:href="#DejaVuSans-6f" transform="translate(125 0)"/>
     <use xlink:href="#DejaVuSans-20" transform="translate(186.181641 0)"/>
     <use xlink:href="#DejaVuSans-73" transform="translate(217.96875 0)"/>
     <use xlink:href="#DejaVuSans-70" transform="translate(270.068359 0)"/>
     <use xlink:href="#DejaVuSans-65" transform="translate(333.544922 0)"/>
     <use xlink:href="#DejaVuSans-65" transform="translate(395.068359 0)"/>
     <use xlink:href="#DejaVuSans-64" transform="translate(456.591797 0)"/>
     <use xlink:href="#DejaVuSans-20" transform="translate(520.068359 0)"/>
     <use xlink:href="#DejaVuSans-64" transform="translate(551.855469 0)"/>
     <use xlink:href="#DejaVuSans-69" transform="translate(615.332031 0)"/>
     <use xlink:href="#DejaVuSans-73" transform="translate(643.115234 0)"/>
     <use xlink:href="#DejaVuSans-74" transform="translate(695.214844 0)"/>
     <use xlink:href="#DejaVuSans-72" transform="translate(734.423828 0)"/>
     <use xlink:href="#DejaVuSans-69" transform="translate(775.537109 0)"/>
     <use xlink:href="#DejaVuSans-62" transform="translate(803.320312 0)"/>
     <use xlink:href="#DejaVuSans-75" transform="translate(866.796875 0)"/>
     <use xlink:href="#DejaVuSans-74" transform="translate(930.175781 0)"/>
     <use xlink:href="#DejaVuSans-69" transform="translate(969.384766 0)"/>
     <use xlink:href="#DejaVuSans-6f" transform="translate(997.167969 0)"/>
     <use xlink:href="#DejaVuSans-6e" transform="translate(1058.349609 0)"/>
    </g>
   </g>
  </g>
  <g id="axes_2">
   <g id="patch_37">
    <path d="M 351.329261 133.198125 
L 604.965625 133.198125 
L 604.965625 22.318125 
L 351.329261 22.318125 
z
" style="fill: #ffffff"/>
   </g>
   <g id="patch_38">
    <path d="M 362.858187 133.198125 
L 370.544138 133.198125 
L 370.544138 133.196018 
L 362.858187 133.196018 
z
" clip-path="url(#p2790153d57)" style="fill: #1f77b4"/>
   </g>
   <g id="patch_39">
    <path d="M 370.544138 133.198125 
L 378.230088 133.198125 
L 378.230088 133.198125 
L 370.544138 133.198125 
z
" clip-path="url(#p2790153d57)" style="fill: #1f77b4"/>
   </g>
   <g id="patch_40">
    <path d="M 378.230088 133.198125 
L 385.916039 133.198125 
L 385.916039 133.19672 
L 378.230088 133.19672 
z
" clip-path="url(#p2790153d57)" style="fill: #1f77b4"/>
   </g>
   <g id="patch_41">
    <path d="M 385.916039 133.198125 
L 393.60199 133.198125 
L 393.60199 133.196018 
L 385.916039 133.196018 
z
" clip-path="url(#p2790153d57)" style="fill: #1f77b4"/>
   </g>
   <g id="patch_42">
    <path d="M 393.60199 133.198125 
L 401.28794 133.198125 
L 401.28794 133.194613 
L 393.60199 133.194613 
z
" clip-path="url(#p2790153d57)" style="fill: #1f77b4"/>
   </g>
   <g id="patch_43">
    <path d="M 401.28794 133.198125 
L 408.973891 133.198125 
L 408.973891 133.194613 
L 401.28794 133.194613 
z
" clip-path="url(#p2790153d57)" style="fill: #1f77b4"/>
   </g>
   <g id="patch_44">
    <path d="M 408.973891 133.198125 
L 416.659842 133.198125 
L 416.659842 133.188994 
L 408.973891 133.188994 
z
" clip-path="url(#p2790153d57)" style="fill: #1f77b4"/>
   </g>
   <g id="patch_45">
    <path d="M 416.659842 133.198125 
L 424.345788 133.198125 
L 424.345788 133.181268 
L 416.659842 133.181268 
z
" clip-path="url(#p2790153d57)" style="fill: #1f77b4"/>
   </g>
   <g id="patch_46">
    <path d="M 424.345788 133.198125 
L 432.031739 133.198125 
L 432.031739 133.13772 
L 424.345788 133.13772 
z
" clip-path="url(#p2790153d57)" style="fill: #1f77b4"/>
   </g>
   <g id="patch_47">
    <path d="M 432.031739 133.198125 
L 439.71769 133.198125 
L 439.71769 133.008482 
L 432.031739 133.008482 
z
" clip-path="url(#p2790153d57)" style="fill: #1f77b4"/>
   </g>
   <g id="patch_48">
    <path d="M 439.71769 133.198125 
L 447.403643 133.198125 
L 447.403643 132.795661 
L 439.71769 132.795661 
z
" clip-path="url(#p2790153d57)" style="fill: #1f77b4"/>
   </g>
   <g id="patch_49">
    <path d="M 447.403643 133.198125 
L 455.089591 133.198125 
L 455.089591 132.614447 
L 447.403643 132.614447 
z
" clip-path="url(#p2790153d57)" style="fill: #1f77b4"/>
   </g>
   <g id="patch_50">
    <path d="M 455.089591 133.198125 
L 462.775543 133.198125 
L 462.775543 131.89802 
L 455.089591 131.89802 
z
" clip-path="url(#p2790153d57)" style="fill: #1f77b4"/>
   </g>
   <g id="patch_51">
    <path d="M 462.775543 133.198125 
L 470.461492 133.198125 
L 470.461492 131.19283 
L 462.775543 131.19283 
z
" clip-path="url(#p2790153d57)" style="fill: #1f77b4"/>
   </g>
   <g id="patch_52">
    <path d="M 470.461492 133.198125 
L 478.147443 133.198125 
L 478.147443 127.300242 
L 470.461492 127.300242 
z
" clip-path="url(#p2790153d57)" style="fill: #1f77b4"/>
   </g>
   <g id="patch_53">
    <path d="M 478.147443 133.198125 
L 485.833393 133.198125 
L 485.833393 27.598125 
L 478.147443 27.598125 
z
" clip-path="url(#p2790153d57)" style="fill: #1f77b4"/>
   </g>
   <g id="patch_54">
    <path d="M 485.833393 133.198125 
L 493.519344 133.198125 
L 493.519344 130.51082 
L 485.833393 130.51082 
z
" clip-path="url(#p2790153d57)" style="fill: #1f77b4"/>
   </g>
   <g id="patch_55">
    <path d="M 493.519344 133.198125 
L 501.205295 133.198125 
L 501.205295 131.640949 
L 493.519344 131.640949 
z
" clip-path="url(#p2790153d57)" style="fill: #1f77b4"/>
   </g>
   <g id="patch_56">
    <path d="M 501.205295 133.198125 
L 508.891244 133.198125 
L 508.891244 132.310317 
L 501.205295 132.310317 
z
" clip-path="url(#p2790153d57)" style="fill: #1f77b4"/>
   </g>
   <g id="patch_57">
    <path d="M 508.891244 133.198125 
L 516.577197 133.198125 
L 516.577197 132.983197 
L 508.891244 132.983197 
z
" clip-path="url(#p2790153d57)" style="fill: #1f77b4"/>
   </g>
   <g id="patch_58">
    <path d="M 516.577197 133.198125 
L 524.263147 133.198125 
L 524.263147 133.005673 
L 516.577197 133.005673 
z
" clip-path="url(#p2790153d57)" style="fill: #1f77b4"/>
   </g>
   <g id="patch_59">
    <path d="M 524.263147 133.198125 
L 531.949098 133.198125 
L 531.949098 133.128589 
L 524.263147 133.128589 
z
" clip-path="url(#p2790153d57)" style="fill: #1f77b4"/>
   </g>
   <g id="patch_60">
    <path d="M 531.949098 133.198125 
L 539.635045 133.198125 
L 539.635045 133.177054 
L 531.949098 133.177054 
z
" clip-path="url(#p2790153d57)" style="fill: #1f77b4"/>
   </g>
   <g id="patch_61">
    <path d="M 539.635045 133.198125 
L 547.320995 133.198125 
L 547.320995 133.188994 
L 539.635045 133.188994 
z
" clip-path="url(#p2790153d57)" style="fill: #1f77b4"/>
   </g>
   <g id="patch_62">
    <path d="M 547.320995 133.198125 
L 555.006946 133.198125 
L 555.006946 133.194613 
L 547.320995 133.194613 
z
" clip-path="url(#p2790153d57)" style="fill: #1f77b4"/>
   </g>
   <g id="patch_63">
    <path d="M 555.006946 133.198125 
L 562.692897 133.198125 
L 562.692897 133.19672 
L 555.006946 133.19672 
z
" clip-path="url(#p2790153d57)" style="fill: #1f77b4"/>
   </g>
   <g id="patch_64">
    <path d="M 562.692897 133.198125 
L 570.378847 133.198125 
L 570.378847 133.19672 
L 562.692897 133.19672 
z
" clip-path="url(#p2790153d57)" style="fill: #1f77b4"/>
   </g>
   <g id="patch_65">
    <path d="M 570.378847 133.198125 
L 578.064798 133.198125 
L 578.064798 133.197423 
L 570.378847 133.197423 
z
" clip-path="url(#p2790153d57)" style="fill: #1f77b4"/>
   </g>
   <g id="patch_66">
    <path d="M 578.064798 133.198125 
L 585.750749 133.198125 
L 585.750749 133.19672 
L 578.064798 133.19672 
z
" clip-path="url(#p2790153d57)" style="fill: #1f77b4"/>
   </g>
   <g id="patch_67">
    <path d="M 585.750749 133.198125 
L 593.436699 133.198125 
L 593.436699 133.19672 
L 585.750749 133.19672 
z
" clip-path="url(#p2790153d57)" style="fill: #1f77b4"/>
   </g>
   <g id="matplotlib.axis_3">
    <g id="xtick_8">
     <g id="line2d_13">
      <g>
       <use xlink:href="#m84e34b1627" x="373.840547" y="133.198125" style="stroke: #000000; stroke-width: 0.8"/>
      </g>
     </g>
     <g id="text_16">
      <!-- −1.5 -->
      <g transform="translate(361.699141 147.796563) scale(0.1 -0.1)">
       <defs>
        <path id="DejaVuSans-2212" d="M 678 2272 
L 4684 2272 
L 4684 1741 
L 678 1741 
L 678 2272 
z
" transform="scale(0.015625)"/>
       </defs>
       <use xlink:href="#DejaVuSans-2212"/>
       <use xlink:href="#DejaVuSans-31" transform="translate(83.789062 0)"/>
       <use xlink:href="#DejaVuSans-2e" transform="translate(147.412109 0)"/>
       <use xlink:href="#DejaVuSans-35" transform="translate(179.199219 0)"/>
      </g>
     </g>
    </g>
    <g id="xtick_9">
     <g id="line2d_14">
      <g>
       <use xlink:href="#m84e34b1627" x="409.068278" y="133.198125" style="stroke: #000000; stroke-width: 0.8"/>
      </g>
     </g>
     <g id="text_17">
      <!-- −1.0 -->
      <g transform="translate(396.926872 147.796563) scale(0.1 -0.1)">
       <use xlink:href="#DejaVuSans-2212"/>
       <use xlink:href="#DejaVuSans-31" transform="translate(83.789062 0)"/>
       <use xlink:href="#DejaVuSans-2e" transform="translate(147.412109 0)"/>
       <use xlink:href="#DejaVuSans-30" transform="translate(179.199219 0)"/>
      </g>
     </g>
    </g>
    <g id="xtick_10">
     <g id="line2d_15">
      <g>
       <use xlink:href="#m84e34b1627" x="444.29601" y="133.198125" style="stroke: #000000; stroke-width: 0.8"/>
      </g>
     </g>
     <g id="text_18">
      <!-- −0.5 -->
      <g transform="translate(432.154603 147.796563) scale(0.1 -0.1)">
       <use xlink:href="#DejaVuSans-2212"/>
       <use xlink:href="#DejaVuSans-30" transform="translate(83.789062 0)"/>
       <use xlink:href="#DejaVuSans-2e" transform="translate(147.412109 0)"/>
       <use xlink:href="#DejaVuSans-35" transform="translate(179.199219 0)"/>
      </g>
     </g>
    </g>
    <g id="xtick_11">
     <g id="line2d_16">
      <g>
       <use xlink:href="#m84e34b1627" x="479.523741" y="133.198125" style="stroke: #000000; stroke-width: 0.8"/>
      </g>
     </g>
     <g id="text_19">
      <!-- 0.0 -->
      <g transform="translate(471.572178 147.796563) scale(0.1 -0.1)">
       <use xlink:href="#DejaVuSans-30"/>
       <use xlink:href="#DejaVuSans-2e" transform="translate(63.623047 0)"/>
       <use xlink:href="#DejaVuSans-30" transform="translate(95.410156 0)"/>
      </g>
     </g>
    </g>
    <g id="xtick_12">
     <g id="line2d_17">
      <g>
       <use xlink:href="#m84e34b1627" x="514.751472" y="133.198125" style="stroke: #000000; stroke-width: 0.8"/>
      </g>
     </g>
     <g id="text_20">
      <!-- 0.5 -->
      <g transform="translate(506.799909 147.796563) scale(0.1 -0.1)">
       <use xlink:href="#DejaVuSans-30"/>
       <use xlink:href="#DejaVuSans-2e" transform="translate(63.623047 0)"/>
       <use xlink:href="#DejaVuSans-35" transform="translate(95.410156 0)"/>
      </g>
     </g>
    </g>
    <g id="xtick_13">
     <g id="line2d_18">
      <g>
       <use xlink:href="#m84e34b1627" x="549.979203" y="133.198125" style="stroke: #000000; stroke-width: 0.8"/>
      </g>
     </g>
     <g id="text_21">
      <!-- 1.0 -->
      <g transform="translate(542.02764 147.796563) scale(0.1 -0.1)">
       <use xlink:href="#DejaVuSans-31"/>
       <use xlink:href="#DejaVuSans-2e" transform="translate(63.623047 0)"/>
       <use xlink:href="#DejaVuSans-30" transform="translate(95.410156 0)"/>
      </g>
     </g>
    </g>
    <g id="xtick_14">
     <g id="line2d_19">
      <g>
       <use xlink:href="#m84e34b1627" x="585.206934" y="133.198125" style="stroke: #000000; stroke-width: 0.8"/>
      </g>
     </g>
     <g id="text_22">
      <!-- 1.5 -->
      <g transform="translate(577.255371 147.796563) scale(0.1 -0.1)">
       <use xlink:href="#DejaVuSans-31"/>
       <use xlink:href="#DejaVuSans-2e" transform="translate(63.623047 0)"/>
       <use xlink:href="#DejaVuSans-35" transform="translate(95.410156 0)"/>
      </g>
     </g>
    </g>
    <g id="text_23">
     <!-- angular speed [rad/s] -->
     <g transform="translate(424.294318 161.474688) scale(0.1 -0.1)">
      <use xlink:href="#DejaVuSans-61"/>
      <use xlink:href="#DejaVuSans-6e" transform="translate(61.279297 0)"/>
      <use xlink:href="#DejaVuSans-67" transform="translate(124.658203 0)"/>
      <use xlink:href="#DejaVuSans-75" transform="translate(188.134766 0)"/>
      <use xlink:href="#DejaVuSans-6c" transform="translate(251.513672 0)"/>
      <use xlink:href="#DejaVuSans-61" transform="translate(279.296875 0)"/>
      <use xlink:href="#DejaVuSans-72" transform="translate(340.576172 0)"/>
      <use xlink:href="#DejaVuSans-20" transform="translate(381.689453 0)"/>
      <use xlink:href="#DejaVuSans-73" transform="translate(413.476562 0)"/>
      <use xlink:href="#DejaVuSans-70" transform="translate(465.576172 0)"/>
      <use xlink:href="#DejaVuSans-65" transform="translate(529.052734 0)"/>
      <use xlink:href="#DejaVuSans-65" transform="translate(590.576172 0)"/>
      <use xlink:href="#DejaVuSans-64" transform="translate(652.099609 0)"/>
      <use xlink:href="#DejaVuSans-20" transform="translate(715.576172 0)"/>
      <use xlink:href="#DejaVuSans-5b" transform="translate(747.363281 0)"/>
      <use xlink:href="#DejaVuSans-72" transform="translate(786.376953 0)"/>
      <use xlink:href="#DejaVuSans-61" transform="translate(827.490234 0)"/>
      <use xlink:href="#DejaVuSans-64" transform="translate(888.769531 0)"/>
      <use xlink:href="#DejaVuSans-2f" transform="translate(952.246094 0)"/>
      <use xlink:href="#DejaVuSans-73" transform="translate(985.9375 0)"/>
      <use xlink:href="#DejaVuSans-5d" transform="translate(1038.037109 0)"/>
     </g>
    </g>
   </g>
   <g id="matplotlib.axis_4">
    <g id="ytick_6">
     <g id="line2d_20">
      <g>
       <use xlink:href="#m09f44b66ce" x="351.329261" y="133.198125" style="stroke: #000000; stroke-width: 0.8"/>
      </g>
     </g>
     <g id="text_24">
      <!-- 0 -->
      <g transform="translate(337.966761 136.997344) scale(0.1 -0.1)">
       <use xlink:href="#DejaVuSans-30"/>
      </g>
     </g>
    </g>
    <g id="ytick_7">
     <g id="line2d_21">
      <g>
       <use xlink:href="#m09f44b66ce" x="351.329261" y="106.639778" style="stroke: #000000; stroke-width: 0.8"/>
      </g>
     </g>
     <g id="text_25">
      <!-- 2 -->
      <g transform="translate(337.966761 110.438997) scale(0.1 -0.1)">
       <use xlink:href="#DejaVuSans-32"/>
      </g>
     </g>
    </g>
    <g id="ytick_8">
     <g id="line2d_22">
      <g>
       <use xlink:href="#m09f44b66ce" x="351.329261" y="80.081431" style="stroke: #000000; stroke-width: 0.8"/>
      </g>
     </g>
     <g id="text_26">
      <!-- 4 -->
      <g transform="translate(337.966761 83.88065) scale(0.1 -0.1)">
       <use xlink:href="#DejaVuSans-34"/>
      </g>
     </g>
    </g>
    <g id="ytick_9">
     <g id="line2d_23">
      <g>
       <use xlink:href="#m09f44b66ce" x="351.329261" y="53.523085" style="stroke: #000000; stroke-width: 0.8"/>
      </g>
     </g>
     <g id="text_27">
      <!-- 6 -->
      <g transform="translate(337.966761 57.322303) scale(0.1 -0.1)">
       <use xlink:href="#DejaVuSans-36"/>
      </g>
     </g>
    </g>
    <g id="ytick_10">
     <g id="line2d_24">
      <g>
       <use xlink:href="#m09f44b66ce" x="351.329261" y="26.964738" style="stroke: #000000; stroke-width: 0.8"/>
      </g>
     </g>
     <g id="text_28">
      <!-- 8 -->
      <g transform="translate(337.966761 30.763957) scale(0.1 -0.1)">
       <use xlink:href="#DejaVuSans-38"/>
      </g>
     </g>
    </g>
    <g id="text_29">
     <!-- probability -->
     <g transform="translate(331.887074 104.433906) rotate(-90) scale(0.1 -0.1)">
      <use xlink:href="#DejaVuSans-70"/>
      <use xlink:href="#DejaVuSans-72" transform="translate(63.476562 0)"/>
      <use xlink:href="#DejaVuSans-6f" transform="translate(102.339844 0)"/>
      <use xlink:href="#DejaVuSans-62" transform="translate(163.521484 0)"/>
      <use xlink:href="#DejaVuSans-61" transform="translate(226.998047 0)"/>
      <use xlink:href="#DejaVuSans-62" transform="translate(288.277344 0)"/>
      <use xlink:href="#DejaVuSans-69" transform="translate(351.753906 0)"/>
      <use xlink:href="#DejaVuSans-6c" transform="translate(379.537109 0)"/>
      <use xlink:href="#DejaVuSans-69" transform="translate(407.320312 0)"/>
      <use xlink:href="#DejaVuSans-74" transform="translate(435.103516 0)"/>
      <use xlink:href="#DejaVuSans-79" transform="translate(474.3125 0)"/>
     </g>
    </g>
   </g>
   <g id="patch_68">
    <path d="M 351.329261 133.198125 
L 351.329261 22.318125 
" style="fill: none; stroke: #000000; stroke-width: 0.8; stroke-linejoin: miter; stroke-linecap: square"/>
   </g>
   <g id="patch_69">
    <path d="M 604.965625 133.198125 
L 604.965625 22.318125 
" style="fill: none; stroke: #000000; stroke-width: 0.8; stroke-linejoin: miter; stroke-linecap: square"/>
   </g>
   <g id="patch_70">
    <path d="M 351.329261 133.198125 
L 604.965625 133.198125 
" style="fill: none; stroke: #000000; stroke-width: 0.8; stroke-linejoin: miter; stroke-linecap: square"/>
   </g>
   <g id="patch_71">
    <path d="M 351.329261 22.318125 
L 604.965625 22.318125 
" style="fill: none; stroke: #000000; stroke-width: 0.8; stroke-linejoin: miter; stroke-linecap: square"/>
   </g>
   <g id="text_30">
    <!-- ego angular speed distribution -->
    <g transform="translate(386.034318 16.318125) scale(0.12 -0.12)">
     <use xlink:href="#DejaVuSans-65"/>
     <use xlink:href="#DejaVuSans-67" transform="translate(61.523438 0)"/>
     <use xlink:href="#DejaVuSans-6f" transform="translate(125 0)"/>
     <use xlink:href="#DejaVuSans-20" transform="translate(186.181641 0)"/>
     <use xlink:href="#DejaVuSans-61" transform="translate(217.96875 0)"/>
     <use xlink:href="#DejaVuSans-6e" transform="translate(279.248047 0)"/>
     <use xlink:href="#DejaVuSans-67" transform="translate(342.626953 0)"/>
     <use xlink:href="#DejaVuSans-75" transform="translate(406.103516 0)"/>
     <use xlink:href="#DejaVuSans-6c" transform="translate(469.482422 0)"/>
     <use xlink:href="#DejaVuSans-61" transform="translate(497.265625 0)"/>
     <use xlink:href="#DejaVuSans-72" transform="translate(558.544922 0)"/>
     <use xlink:href="#DejaVuSans-20" transform="translate(599.658203 0)"/>
     <use xlink:href="#DejaVuSans-73" transform="translate(631.445312 0)"/>
     <use xlink:href="#DejaVuSans-70" transform="translate(683.544922 0)"/>
     <use xlink:href="#DejaVuSans-65" transform="translate(747.021484 0)"/>
     <use xlink:href="#DejaVuSans-65" transform="translate(808.544922 0)"/>
     <use xlink:href="#DejaVuSans-64" transform="translate(870.068359 0)"/>
     <use xlink:href="#DejaVuSans-20" transform="translate(933.544922 0)"/>
     <use xlink:href="#DejaVuSans-64" transform="translate(965.332031 0)"/>
     <use xlink:href="#DejaVuSans-69" transform="translate(1028.808594 0)"/>
     <use xlink:href="#DejaVuSans-73" transform="translate(1056.591797 0)"/>
     <use xlink:href="#DejaVuSans-74" transform="translate(1108.691406 0)"/>
     <use xlink:href="#DejaVuSans-72" transform="translate(1147.900391 0)"/>
     <use xlink:href="#DejaVuSans-69" transform="translate(1189.013672 0)"/>
     <use xlink:href="#DejaVuSans-62" transform="translate(1216.796875 0)"/>
     <use xlink:href="#DejaVuSans-75" transform="translate(1280.273438 0)"/>
     <use xlink:href="#DejaVuSans-74" transform="translate(1343.652344 0)"/>
     <use xlink:href="#DejaVuSans-69" transform="translate(1382.861328 0)"/>
     <use xlink:href="#DejaVuSans-6f" transform="translate(1410.644531 0)"/>
     <use xlink:href="#DejaVuSans-6e" transform="translate(1471.826172 0)"/>
    </g>
   </g>
  </g>
 </g>
 <defs>
  <clipPath id="p10b5e1bb27">
   <rect x="46.965625" y="22.318125" width="253.636364" height="110.88"/>
  </clipPath>
  <clipPath id="p2790153d57">
   <rect x="351.329261" y="22.318125" width="253.636364" height="110.88"/>
  </clipPath>
 </defs>
</svg>
