<?xml version="1.0" encoding="utf-8" standalone="no"?>
<!DOCTYPE svg PUBLIC "-//W3C//DTD SVG 1.1//EN"
  "http://www.w3.org/Graphics/SVG/1.1/DTD/svg11.dtd">
<svg xmlns:xlink="http://www.w3.org/1999/xlink" width="494.203125pt" height="226.194375pt" viewBox="0 0 494.203125 226.194375" xmlns="http://www.w3.org/2000/svg" version="1.1">
 <metadata>
  <rdf:RDF xmlns:dc="http://purl.org/dc/elements/1.1/" xmlns:cc="http://creativecommons.org/ns#" xmlns:rdf="http://www.w3.org/1999/02/22-rdf-syntax-ns#">
   <cc:Work>
    <dc:type rdf:resource="http://purl.org/dc/dcmitype/StillImage"/>
    <dc:date>2024-12-15T16:30:34.194948</dc:date>
    <dc:format>image/svg+xml</dc:format>
    <dc:creator>
     <cc:Agent>
      <dc:title>Matplotlib v3.10.0, https://matplotlib.org/</dc:title>
     </cc:Agent>
    </dc:creator>
   </cc:Work>
  </rdf:RDF>
 </metadata>
 <defs>
  <style type="text/css">*{stroke-linejoin: round; stroke-linecap: butt}</style>
 </defs>
 <g id="figure_1">
  <g id="patch_1">
   <path d="M 0 226.194375 
L 494.203125 226.194375 
L 494.203125 0 
L 0 0 
z
" style="fill: #ffffff"/>
  </g>
  <g id="axes_1">
   <g id="patch_2">
    <path d="M 40.603125 188.638125 
L 487.003125 188.638125 
L 487.003125 22.318125 
L 40.603125 22.318125 
z
" style="fill: #ffffff"/>
   </g>
   <g id="patch_3">
    <path d="M 60.894034 188.638125 
L 74.887764 188.638125 
L 74.887764 188.638125 
L 60.894034 188.638125 
z
" clip-path="url(#p203a44e679)" style="fill: #1f77b4; opacity: 0.5"/>
   </g>
   <g id="patch_4">
    <path d="M 74.887764 188.638125 
L 88.881495 188.638125 
L 88.881495 188.638125 
L 74.887764 188.638125 
z
" clip-path="url(#p203a44e679)" style="fill: #1f77b4; opacity: 0.5"/>
   </g>
   <g id="patch_5">
    <path d="M 88.881495 188.638125 
L 102.875225 188.638125 
L 102.875225 188.638125 
L 88.881495 188.638125 
z
" clip-path="url(#p203a44e679)" style="fill: #1f77b4; opacity: 0.5"/>
   </g>
   <g id="patch_6">
    <path d="M 102.875225 188.638125 
L 116.868956 188.638125 
L 116.868956 188.638125 
L 102.875225 188.638125 
z
" clip-path="url(#p203a44e679)" style="fill: #1f77b4; opacity: 0.5"/>
   </g>
   <g id="patch_7">
    <path d="M 116.868956 188.638125 
L 130.862686 188.638125 
L 130.862686 188.638125 
L 116.868956 188.638125 
z
" clip-path="url(#p203a44e679)" style="fill: #1f77b4; opacity: 0.5"/>
   </g>
   <g id="patch_8">
    <path d="M 130.862686 188.638125 
L 144.856417 188.638125 
L 144.856417 188.638125 
L 130.862686 188.638125 
z
" clip-path="url(#p203a44e679)" style="fill: #1f77b4; opacity: 0.5"/>
   </g>
   <g id="patch_9">
    <path d="M 144.856417 188.638125 
L 158.850147 188.638125 
L 158.850147 188.638125 
L 144.856417 188.638125 
z
" clip-path="url(#p203a44e679)" style="fill: #1f77b4; opacity: 0.5"/>
   </g>
   <g id="patch_10">
    <path d="M 158.850147 188.638125 
L 172.843877 188.638125 
L 172.843877 188.638125 
L 158.850147 188.638125 
z
" clip-path="url(#p203a44e679)" style="fill: #1f77b4; opacity: 0.5"/>
   </g>
   <g id="patch_11">
    <path d="M 172.843877 188.638125 
L 186.837608 188.638125 
L 186.837608 188.638125 
L 172.843877 188.638125 
z
" clip-path="url(#p203a44e679)" style="fill: #1f77b4; opacity: 0.5"/>
   </g>
   <g id="patch_12">
    <path d="M 186.837608 188.638125 
L 200.831338 188.638125 
L 200.831338 188.638125 
L 186.837608 188.638125 
z
" clip-path="url(#p203a44e679)" style="fill: #1f77b4; opacity: 0.5"/>
   </g>
   <g id="patch_13">
    <path d="M 200.831338 188.638125 
L 214.825069 188.638125 
L 214.825069 185.998125 
L 200.831338 185.998125 
z
" clip-path="url(#p203a44e679)" style="fill: #1f77b4; opacity: 0.5"/>
   </g>
   <g id="patch_14">
    <path d="M 214.825069 188.638125 
L 228.818799 188.638125 
L 228.818799 188.638125 
L 214.825069 188.638125 
z
" clip-path="url(#p203a44e679)" style="fill: #1f77b4; opacity: 0.5"/>
   </g>
   <g id="patch_15">
    <path d="M 228.818799 188.638125 
L 242.812529 188.638125 
L 242.812529 185.998125 
L 228.818799 185.998125 
z
" clip-path="url(#p203a44e679)" style="fill: #1f77b4; opacity: 0.5"/>
   </g>
   <g id="patch_16">
    <path d="M 242.812529 188.638125 
L 256.80626 188.638125 
L 256.80626 183.358125 
L 242.812529 183.358125 
z
" clip-path="url(#p203a44e679)" style="fill: #1f77b4; opacity: 0.5"/>
   </g>
   <g id="patch_17">
    <path d="M 256.80626 188.638125 
L 270.79999 188.638125 
L 270.79999 172.798125 
L 256.80626 172.798125 
z
" clip-path="url(#p203a44e679)" style="fill: #1f77b4; opacity: 0.5"/>
   </g>
   <g id="patch_18">
    <path d="M 270.79999 188.638125 
L 284.793721 188.638125 
L 284.793721 170.158125 
L 270.79999 170.158125 
z
" clip-path="url(#p203a44e679)" style="fill: #1f77b4; opacity: 0.5"/>
   </g>
   <g id="patch_19">
    <path d="M 284.793721 188.638125 
L 298.787451 188.638125 
L 298.787451 141.118125 
L 284.793721 141.118125 
z
" clip-path="url(#p203a44e679)" style="fill: #1f77b4; opacity: 0.5"/>
   </g>
   <g id="patch_20">
    <path d="M 298.787451 188.638125 
L 312.781181 188.638125 
L 312.781181 156.958125 
L 298.787451 156.958125 
z
" clip-path="url(#p203a44e679)" style="fill: #1f77b4; opacity: 0.5"/>
   </g>
   <g id="patch_21">
    <path d="M 312.781181 188.638125 
L 326.774912 188.638125 
L 326.774912 149.038125 
L 312.781181 149.038125 
z
" clip-path="url(#p203a44e679)" style="fill: #1f77b4; opacity: 0.5"/>
   </g>
   <g id="patch_22">
    <path d="M 326.774912 188.638125 
L 340.768642 188.638125 
L 340.768642 109.438125 
L 326.774912 109.438125 
z
" clip-path="url(#p203a44e679)" style="fill: #1f77b4; opacity: 0.5"/>
   </g>
   <g id="patch_23">
    <path d="M 340.768642 188.638125 
L 354.762373 188.638125 
L 354.762373 69.838125 
L 340.768642 69.838125 
z
" clip-path="url(#p203a44e679)" style="fill: #1f77b4; opacity: 0.5"/>
   </g>
   <g id="patch_24">
    <path d="M 354.762373 188.638125 
L 368.756103 188.638125 
L 368.756103 77.758125 
L 354.762373 77.758125 
z
" clip-path="url(#p203a44e679)" style="fill: #1f77b4; opacity: 0.5"/>
   </g>
   <g id="patch_25">
    <path d="M 368.756103 188.638125 
L 382.749833 188.638125 
L 382.749833 69.838125 
L 368.756103 69.838125 
z
" clip-path="url(#p203a44e679)" style="fill: #1f77b4; opacity: 0.5"/>
   </g>
   <g id="patch_26">
    <path d="M 382.749833 188.638125 
L 396.743564 188.638125 
L 396.743564 114.718125 
L 382.749833 114.718125 
z
" clip-path="url(#p203a44e679)" style="fill: #1f77b4; opacity: 0.5"/>
   </g>
   <g id="patch_27">
    <path d="M 396.743564 188.638125 
L 410.737294 188.638125 
L 410.737294 119.998125 
L 396.743564 119.998125 
z
" clip-path="url(#p203a44e679)" style="fill: #1f77b4; opacity: 0.5"/>
   </g>
   <g id="patch_28">
    <path d="M 410.737294 188.638125 
L 424.731025 188.638125 
L 424.731025 149.038125 
L 410.737294 149.038125 
z
" clip-path="url(#p203a44e679)" style="fill: #1f77b4; opacity: 0.5"/>
   </g>
   <g id="patch_29">
    <path d="M 424.731025 188.638125 
L 438.724755 188.638125 
L 438.724755 170.158125 
L 424.731025 170.158125 
z
" clip-path="url(#p203a44e679)" style="fill: #1f77b4; opacity: 0.5"/>
   </g>
   <g id="patch_30">
    <path d="M 438.724755 188.638125 
L 452.718486 188.638125 
L 452.718486 188.638125 
L 438.724755 188.638125 
z
" clip-path="url(#p203a44e679)" style="fill: #1f77b4; opacity: 0.5"/>
   </g>
   <g id="patch_31">
    <path d="M 452.718486 188.638125 
L 466.712216 188.638125 
L 466.712216 188.638125 
L 452.718486 188.638125 
z
" clip-path="url(#p203a44e679)" style="fill: #1f77b4; opacity: 0.5"/>
   </g>
   <g id="patch_32">
    <path d="M 60.894034 188.638125 
L 74.887764 188.638125 
L 74.887764 188.638125 
L 60.894034 188.638125 
z
" clip-path="url(#p203a44e679)" style="fill: #ff7f0e; opacity: 0.5"/>
   </g>
   <g id="patch_33">
    <path d="M 74.887764 188.638125 
L 88.881495 188.638125 
L 88.881495 188.638125 
L 74.887764 188.638125 
z
" clip-path="url(#p203a44e679)" style="fill: #ff7f0e; opacity: 0.5"/>
   </g>
   <g id="patch_34">
    <path d="M 88.881495 188.638125 
L 102.875225 188.638125 
L 102.875225 188.638125 
L 88.881495 188.638125 
z
" clip-path="url(#p203a44e679)" style="fill: #ff7f0e; opacity: 0.5"/>
   </g>
   <g id="patch_35">
    <path d="M 102.875225 188.638125 
L 116.868956 188.638125 
L 116.868956 188.638125 
L 102.875225 188.638125 
z
" clip-path="url(#p203a44e679)" style="fill: #ff7f0e; opacity: 0.5"/>
   </g>
   <g id="patch_36">
    <path d="M 116.868956 188.638125 
L 130.862686 188.638125 
L 130.862686 188.638125 
L 116.868956 188.638125 
z
" clip-path="url(#p203a44e679)" style="fill: #ff7f0e; opacity: 0.5"/>
   </g>
   <g id="patch_37">
    <path d="M 130.862686 188.638125 
L 144.856417 188.638125 
L 144.856417 188.638125 
L 130.862686 188.638125 
z
" clip-path="url(#p203a44e679)" style="fill: #ff7f0e; opacity: 0.5"/>
   </g>
   <g id="patch_38">
    <path d="M 144.856417 188.638125 
L 158.850147 188.638125 
L 158.850147 188.638125 
L 144.856417 188.638125 
z
" clip-path="url(#p203a44e679)" style="fill: #ff7f0e; opacity: 0.5"/>
   </g>
   <g id="patch_39">
    <path d="M 158.850147 188.638125 
L 172.843877 188.638125 
L 172.843877 188.638125 
L 158.850147 188.638125 
z
" clip-path="url(#p203a44e679)" style="fill: #ff7f0e; opacity: 0.5"/>
   </g>
   <g id="patch_40">
    <path d="M 172.843877 188.638125 
L 186.837608 188.638125 
L 186.837608 188.638125 
L 172.843877 188.638125 
z
" clip-path="url(#p203a44e679)" style="fill: #ff7f0e; opacity: 0.5"/>
   </g>
   <g id="patch_41">
    <path d="M 186.837608 188.638125 
L 200.831338 188.638125 
L 200.831338 188.638125 
L 186.837608 188.638125 
z
" clip-path="url(#p203a44e679)" style="fill: #ff7f0e; opacity: 0.5"/>
   </g>
   <g id="patch_42">
    <path d="M 200.831338 188.638125 
L 214.825069 188.638125 
L 214.825069 188.638125 
L 200.831338 188.638125 
z
" clip-path="url(#p203a44e679)" style="fill: #ff7f0e; opacity: 0.5"/>
   </g>
   <g id="patch_43">
    <path d="M 214.825069 188.638125 
L 228.818799 188.638125 
L 228.818799 188.638125 
L 214.825069 188.638125 
z
" clip-path="url(#p203a44e679)" style="fill: #ff7f0e; opacity: 0.5"/>
   </g>
   <g id="patch_44">
    <path d="M 228.818799 188.638125 
L 242.812529 188.638125 
L 242.812529 188.638125 
L 228.818799 188.638125 
z
" clip-path="url(#p203a44e679)" style="fill: #ff7f0e; opacity: 0.5"/>
   </g>
   <g id="patch_45">
    <path d="M 242.812529 188.638125 
L 256.80626 188.638125 
L 256.80626 188.638125 
L 242.812529 188.638125 
z
" clip-path="url(#p203a44e679)" style="fill: #ff7f0e; opacity: 0.5"/>
   </g>
   <g id="patch_46">
    <path d="M 256.80626 188.638125 
L 270.79999 188.638125 
L 270.79999 188.638125 
L 256.80626 188.638125 
z
" clip-path="url(#p203a44e679)" style="fill: #ff7f0e; opacity: 0.5"/>
   </g>
   <g id="patch_47">
    <path d="M 270.79999 188.638125 
L 284.793721 188.638125 
L 284.793721 188.638125 
L 270.79999 188.638125 
z
" clip-path="url(#p203a44e679)" style="fill: #ff7f0e; opacity: 0.5"/>
   </g>
   <g id="patch_48">
    <path d="M 284.793721 188.638125 
L 298.787451 188.638125 
L 298.787451 183.358125 
L 284.793721 183.358125 
z
" clip-path="url(#p203a44e679)" style="fill: #ff7f0e; opacity: 0.5"/>
   </g>
   <g id="patch_49">
    <path d="M 298.787451 188.638125 
L 312.781181 188.638125 
L 312.781181 188.638125 
L 298.787451 188.638125 
z
" clip-path="url(#p203a44e679)" style="fill: #ff7f0e; opacity: 0.5"/>
   </g>
   <g id="patch_50">
    <path d="M 312.781181 188.638125 
L 326.774912 188.638125 
L 326.774912 183.358125 
L 312.781181 183.358125 
z
" clip-path="url(#p203a44e679)" style="fill: #ff7f0e; opacity: 0.5"/>
   </g>
   <g id="patch_51">
    <path d="M 326.774912 188.638125 
L 340.768642 188.638125 
L 340.768642 175.438125 
L 326.774912 175.438125 
z
" clip-path="url(#p203a44e679)" style="fill: #ff7f0e; opacity: 0.5"/>
   </g>
   <g id="patch_52">
    <path d="M 340.768642 188.638125 
L 354.762373 188.638125 
L 354.762373 162.238125 
L 340.768642 162.238125 
z
" clip-path="url(#p203a44e679)" style="fill: #ff7f0e; opacity: 0.5"/>
   </g>
   <g id="patch_53">
    <path d="M 354.762373 188.638125 
L 368.756103 188.638125 
L 368.756103 149.038125 
L 354.762373 149.038125 
z
" clip-path="url(#p203a44e679)" style="fill: #ff7f0e; opacity: 0.5"/>
   </g>
   <g id="patch_54">
    <path d="M 368.756103 188.638125 
L 382.749833 188.638125 
L 382.749833 133.198125 
L 368.756103 133.198125 
z
" clip-path="url(#p203a44e679)" style="fill: #ff7f0e; opacity: 0.5"/>
   </g>
   <g id="patch_55">
    <path d="M 382.749833 188.638125 
L 396.743564 188.638125 
L 396.743564 112.078125 
L 382.749833 112.078125 
z
" clip-path="url(#p203a44e679)" style="fill: #ff7f0e; opacity: 0.5"/>
   </g>
   <g id="patch_56">
    <path d="M 396.743564 188.638125 
L 410.737294 188.638125 
L 410.737294 98.878125 
L 396.743564 98.878125 
z
" clip-path="url(#p203a44e679)" style="fill: #ff7f0e; opacity: 0.5"/>
   </g>
   <g id="patch_57">
    <path d="M 410.737294 188.638125 
L 424.731025 188.638125 
L 424.731025 69.838125 
L 410.737294 69.838125 
z
" clip-path="url(#p203a44e679)" style="fill: #ff7f0e; opacity: 0.5"/>
   </g>
   <g id="patch_58">
    <path d="M 424.731025 188.638125 
L 438.724755 188.638125 
L 438.724755 38.158125 
L 424.731025 38.158125 
z
" clip-path="url(#p203a44e679)" style="fill: #ff7f0e; opacity: 0.5"/>
   </g>
   <g id="patch_59">
    <path d="M 438.724755 188.638125 
L 452.718486 188.638125 
L 452.718486 30.238125 
L 438.724755 30.238125 
z
" clip-path="url(#p203a44e679)" style="fill: #ff7f0e; opacity: 0.5"/>
   </g>
   <g id="patch_60">
    <path d="M 452.718486 188.638125 
L 466.712216 188.638125 
L 466.712216 135.838125 
L 452.718486 135.838125 
z
" clip-path="url(#p203a44e679)" style="fill: #ff7f0e; opacity: 0.5"/>
   </g>
   <g id="matplotlib.axis_1">
    <g id="xtick_1">
     <g id="line2d_1">
      <defs>
       <path id="ma546f0c8d3" d="M 0 0 
L 0 3.5 
" style="stroke: #000000; stroke-width: 0.8"/>
      </defs>
      <g>
       <use xlink:href="#ma546f0c8d3" x="60.894034" y="188.638125" style="stroke: #000000; stroke-width: 0.8"/>
      </g>
     </g>
     <g id="text_1">
      <!-- −0.5 -->
      <g transform="translate(48.752628 203.236563) scale(0.1 -0.1)">
       <defs>
        <path id="DejaVuSans-2212" d="M 678 2272 
L 4684 2272 
L 4684 1741 
L 678 1741 
L 678 2272 
z
" transform="scale(0.015625)"/>
        <path id="DejaVuSans-30" d="M 2034 4250 
Q 1547 4250 1301 3770 
Q 1056 3291 1056 2328 
Q 1056 1369 1301 889 
Q 1547 409 2034 409 
Q 2525 409 2770 889 
Q 3016 1369 3016 2328 
Q 3016 3291 2770 3770 
Q 2525 4250 2034 4250 
z
M 2034 4750 
Q 2819 4750 3233 4129 
Q 3647 3509 3647 2328 
Q 3647 1150 3233 529 
Q 2819 -91 2034 -91 
Q 1250 -91 836 529 
Q 422 1150 422 2328 
Q 422 3509 836 4129 
Q 1250 4750 2034 4750 
z
" transform="scale(0.015625)"/>
        <path id="DejaVuSans-2e" d="M 684 794 
L 1344 794 
L 1344 0 
L 684 0 
L 684 794 
z
" transform="scale(0.015625)"/>
        <path id="DejaVuSans-35" d="M 691 4666 
L 3169 4666 
L 3169 4134 
L 1269 4134 
L 1269 2991 
Q 1406 3038 1543 3061 
Q 1681 3084 1819 3084 
Q 2600 3084 3056 2656 
Q 3513 2228 3513 1497 
Q 3513 744 3044 326 
Q 2575 -91 1722 -91 
Q 1428 -91 1123 -41 
Q 819 9 494 109 
L 494 744 
Q 775 591 1075 516 
Q 1375 441 1709 441 
Q 2250 441 2565 725 
Q 2881 1009 2881 1497 
Q 2881 1984 2565 2268 
Q 2250 2553 1709 2553 
Q 1456 2553 1204 2497 
Q 953 2441 691 2322 
L 691 4666 
z
" transform="scale(0.015625)"/>
       </defs>
       <use xlink:href="#DejaVuSans-2212"/>
       <use xlink:href="#DejaVuSans-30" transform="translate(83.789062 0)"/>
       <use xlink:href="#DejaVuSans-2e" transform="translate(147.412109 0)"/>
       <use xlink:href="#DejaVuSans-35" transform="translate(179.199219 0)"/>
      </g>
     </g>
    </g>
    <g id="xtick_2">
     <g id="line2d_2">
      <g>
       <use xlink:href="#ma546f0c8d3" x="142.05767" y="188.638125" style="stroke: #000000; stroke-width: 0.8"/>
      </g>
     </g>
     <g id="text_2">
      <!-- −0.4 -->
      <g transform="translate(129.916264 203.236563) scale(0.1 -0.1)">
       <defs>
        <path id="DejaVuSans-34" d="M 2419 4116 
L 825 1625 
L 2419 1625 
L 2419 4116 
z
M 2253 4666 
L 3047 4666 
L 3047 1625 
L 3713 1625 
L 3713 1100 
L 3047 1100 
L 3047 0 
L 2419 0 
L 2419 1100 
L 313 1100 
L 313 1709 
L 2253 4666 
z
" transform="scale(0.015625)"/>
       </defs>
       <use xlink:href="#DejaVuSans-2212"/>
       <use xlink:href="#DejaVuSans-30" transform="translate(83.789062 0)"/>
       <use xlink:href="#DejaVuSans-2e" transform="translate(147.412109 0)"/>
       <use xlink:href="#DejaVuSans-34" transform="translate(179.199219 0)"/>
      </g>
     </g>
    </g>
    <g id="xtick_3">
     <g id="line2d_3">
      <g>
       <use xlink:href="#ma546f0c8d3" x="223.221307" y="188.638125" style="stroke: #000000; stroke-width: 0.8"/>
      </g>
     </g>
     <g id="text_3">
      <!-- −0.3 -->
      <g transform="translate(211.079901 203.236563) scale(0.1 -0.1)">
       <defs>
        <path id="DejaVuSans-33" d="M 2597 2516 
Q 3050 2419 3304 2112 
Q 3559 1806 3559 1356 
Q 3559 666 3084 287 
Q 2609 -91 1734 -91 
Q 1441 -91 1130 -33 
Q 819 25 488 141 
L 488 750 
Q 750 597 1062 519 
Q 1375 441 1716 441 
Q 2309 441 2620 675 
Q 2931 909 2931 1356 
Q 2931 1769 2642 2001 
Q 2353 2234 1838 2234 
L 1294 2234 
L 1294 2753 
L 1863 2753 
Q 2328 2753 2575 2939 
Q 2822 3125 2822 3475 
Q 2822 3834 2567 4026 
Q 2313 4219 1838 4219 
Q 1578 4219 1281 4162 
Q 984 4106 628 3988 
L 628 4550 
Q 988 4650 1302 4700 
Q 1616 4750 1894 4750 
Q 2613 4750 3031 4423 
Q 3450 4097 3450 3541 
Q 3450 3153 3228 2886 
Q 3006 2619 2597 2516 
z
" transform="scale(0.015625)"/>
       </defs>
       <use xlink:href="#DejaVuSans-2212"/>
       <use xlink:href="#DejaVuSans-30" transform="translate(83.789062 0)"/>
       <use xlink:href="#DejaVuSans-2e" transform="translate(147.412109 0)"/>
       <use xlink:href="#DejaVuSans-33" transform="translate(179.199219 0)"/>
      </g>
     </g>
    </g>
    <g id="xtick_4">
     <g id="line2d_4">
      <g>
       <use xlink:href="#ma546f0c8d3" x="304.384943" y="188.638125" style="stroke: #000000; stroke-width: 0.8"/>
      </g>
     </g>
     <g id="text_4">
      <!-- −0.2 -->
      <g transform="translate(292.243537 203.236563) scale(0.1 -0.1)">
       <defs>
        <path id="DejaVuSans-32" d="M 1228 531 
L 3431 531 
L 3431 0 
L 469 0 
L 469 531 
Q 828 903 1448 1529 
Q 2069 2156 2228 2338 
Q 2531 2678 2651 2914 
Q 2772 3150 2772 3378 
Q 2772 3750 2511 3984 
Q 2250 4219 1831 4219 
Q 1534 4219 1204 4116 
Q 875 4013 500 3803 
L 500 4441 
Q 881 4594 1212 4672 
Q 1544 4750 1819 4750 
Q 2544 4750 2975 4387 
Q 3406 4025 3406 3419 
Q 3406 3131 3298 2873 
Q 3191 2616 2906 2266 
Q 2828 2175 2409 1742 
Q 1991 1309 1228 531 
z
" transform="scale(0.015625)"/>
       </defs>
       <use xlink:href="#DejaVuSans-2212"/>
       <use xlink:href="#DejaVuSans-30" transform="translate(83.789062 0)"/>
       <use xlink:href="#DejaVuSans-2e" transform="translate(147.412109 0)"/>
       <use xlink:href="#DejaVuSans-32" transform="translate(179.199219 0)"/>
      </g>
     </g>
    </g>
    <g id="xtick_5">
     <g id="line2d_5">
      <g>
       <use xlink:href="#ma546f0c8d3" x="385.54858" y="188.638125" style="stroke: #000000; stroke-width: 0.8"/>
      </g>
     </g>
     <g id="text_5">
      <!-- −0.1 -->
      <g transform="translate(373.407173 203.236563) scale(0.1 -0.1)">
       <defs>
        <path id="DejaVuSans-31" d="M 794 531 
L 1825 531 
L 1825 4091 
L 703 3866 
L 703 4441 
L 1819 4666 
L 2450 4666 
L 2450 531 
L 3481 531 
L 3481 0 
L 794 0 
L 794 531 
z
" transform="scale(0.015625)"/>
       </defs>
       <use xlink:href="#DejaVuSans-2212"/>
       <use xlink:href="#DejaVuSans-30" transform="translate(83.789062 0)"/>
       <use xlink:href="#DejaVuSans-2e" transform="translate(147.412109 0)"/>
       <use xlink:href="#DejaVuSans-31" transform="translate(179.199219 0)"/>
      </g>
     </g>
    </g>
    <g id="xtick_6">
     <g id="line2d_6">
      <g>
       <use xlink:href="#ma546f0c8d3" x="466.712216" y="188.638125" style="stroke: #000000; stroke-width: 0.8"/>
      </g>
     </g>
     <g id="text_6">
      <!-- 0.0 -->
      <g transform="translate(458.760653 203.236563) scale(0.1 -0.1)">
       <use xlink:href="#DejaVuSans-30"/>
       <use xlink:href="#DejaVuSans-2e" transform="translate(63.623047 0)"/>
       <use xlink:href="#DejaVuSans-30" transform="translate(95.410156 0)"/>
      </g>
     </g>
    </g>
    <g id="text_7">
     <!-- average reward -->
     <g transform="translate(224.428906 216.914688) scale(0.1 -0.1)">
      <defs>
       <path id="DejaVuSans-61" d="M 2194 1759 
Q 1497 1759 1228 1600 
Q 959 1441 959 1056 
Q 959 750 1161 570 
Q 1363 391 1709 391 
Q 2188 391 2477 730 
Q 2766 1069 2766 1631 
L 2766 1759 
L 2194 1759 
z
M 3341 1997 
L 3341 0 
L 2766 0 
L 2766 531 
Q 2569 213 2275 61 
Q 1981 -91 1556 -91 
Q 1019 -91 701 211 
Q 384 513 384 1019 
Q 384 1609 779 1909 
Q 1175 2209 1959 2209 
L 2766 2209 
L 2766 2266 
Q 2766 2663 2505 2880 
Q 2244 3097 1772 3097 
Q 1472 3097 1187 3025 
Q 903 2953 641 2809 
L 641 3341 
Q 956 3463 1253 3523 
Q 1550 3584 1831 3584 
Q 2591 3584 2966 3190 
Q 3341 2797 3341 1997 
z
" transform="scale(0.015625)"/>
       <path id="DejaVuSans-76" d="M 191 3500 
L 800 3500 
L 1894 563 
L 2988 3500 
L 3597 3500 
L 2284 0 
L 1503 0 
L 191 3500 
z
" transform="scale(0.015625)"/>
       <path id="DejaVuSans-65" d="M 3597 1894 
L 3597 1613 
L 953 1613 
Q 991 1019 1311 708 
Q 1631 397 2203 397 
Q 2534 397 2845 478 
Q 3156 559 3463 722 
L 3463 178 
Q 3153 47 2828 -22 
Q 2503 -91 2169 -91 
Q 1331 -91 842 396 
Q 353 884 353 1716 
Q 353 2575 817 3079 
Q 1281 3584 2069 3584 
Q 2775 3584 3186 3129 
Q 3597 2675 3597 1894 
z
M 3022 2063 
Q 3016 2534 2758 2815 
Q 2500 3097 2075 3097 
Q 1594 3097 1305 2825 
Q 1016 2553 972 2059 
L 3022 2063 
z
" transform="scale(0.015625)"/>
       <path id="DejaVuSans-72" d="M 2631 2963 
Q 2534 3019 2420 3045 
Q 2306 3072 2169 3072 
Q 1681 3072 1420 2755 
Q 1159 2438 1159 1844 
L 1159 0 
L 581 0 
L 581 3500 
L 1159 3500 
L 1159 2956 
Q 1341 3275 1631 3429 
Q 1922 3584 2338 3584 
Q 2397 3584 2469 3576 
Q 2541 3569 2628 3553 
L 2631 2963 
z
" transform="scale(0.015625)"/>
       <path id="DejaVuSans-67" d="M 2906 1791 
Q 2906 2416 2648 2759 
Q 2391 3103 1925 3103 
Q 1463 3103 1205 2759 
Q 947 2416 947 1791 
Q 947 1169 1205 825 
Q 1463 481 1925 481 
Q 2391 481 2648 825 
Q 2906 1169 2906 1791 
z
M 3481 434 
Q 3481 -459 3084 -895 
Q 2688 -1331 1869 -1331 
Q 1566 -1331 1297 -1286 
Q 1028 -1241 775 -1147 
L 775 -588 
Q 1028 -725 1275 -790 
Q 1522 -856 1778 -856 
Q 2344 -856 2625 -561 
Q 2906 -266 2906 331 
L 2906 616 
Q 2728 306 2450 153 
Q 2172 0 1784 0 
Q 1141 0 747 490 
Q 353 981 353 1791 
Q 353 2603 747 3093 
Q 1141 3584 1784 3584 
Q 2172 3584 2450 3431 
Q 2728 3278 2906 2969 
L 2906 3500 
L 3481 3500 
L 3481 434 
z
" transform="scale(0.015625)"/>
       <path id="DejaVuSans-20" transform="scale(0.015625)"/>
       <path id="DejaVuSans-77" d="M 269 3500 
L 844 3500 
L 1563 769 
L 2278 3500 
L 2956 3500 
L 3675 769 
L 4391 3500 
L 4966 3500 
L 4050 0 
L 3372 0 
L 2619 2869 
L 1863 0 
L 1184 0 
L 269 3500 
z
" transform="scale(0.015625)"/>
       <path id="DejaVuSans-64" d="M 2906 2969 
L 2906 4863 
L 3481 4863 
L 3481 0 
L 2906 0 
L 2906 525 
Q 2725 213 2448 61 
Q 2172 -91 1784 -91 
Q 1150 -91 751 415 
Q 353 922 353 1747 
Q 353 2572 751 3078 
Q 1150 3584 1784 3584 
Q 2172 3584 2448 3432 
Q 2725 3281 2906 2969 
z
M 947 1747 
Q 947 1113 1208 752 
Q 1469 391 1925 391 
Q 2381 391 2643 752 
Q 2906 1113 2906 1747 
Q 2906 2381 2643 2742 
Q 2381 3103 1925 3103 
Q 1469 3103 1208 2742 
Q 947 2381 947 1747 
z
" transform="scale(0.015625)"/>
      </defs>
      <use xlink:href="#DejaVuSans-61"/>
      <use xlink:href="#DejaVuSans-76" transform="translate(61.279297 0)"/>
      <use xlink:href="#DejaVuSans-65" transform="translate(120.458984 0)"/>
      <use xlink:href="#DejaVuSans-72" transform="translate(181.982422 0)"/>
      <use xlink:href="#DejaVuSans-61" transform="translate(223.095703 0)"/>
      <use xlink:href="#DejaVuSans-67" transform="translate(284.375 0)"/>
      <use xlink:href="#DejaVuSans-65" transform="translate(347.851562 0)"/>
      <use xlink:href="#DejaVuSans-20" transform="translate(409.375 0)"/>
      <use xlink:href="#DejaVuSans-72" transform="translate(441.162109 0)"/>
      <use xlink:href="#DejaVuSans-65" transform="translate(480.025391 0)"/>
      <use xlink:href="#DejaVuSans-77" transform="translate(541.548828 0)"/>
      <use xlink:href="#DejaVuSans-61" transform="translate(623.335938 0)"/>
      <use xlink:href="#DejaVuSans-72" transform="translate(684.615234 0)"/>
      <use xlink:href="#DejaVuSans-64" transform="translate(723.978516 0)"/>
     </g>
    </g>
   </g>
   <g id="matplotlib.axis_2">
    <g id="ytick_1">
     <g id="line2d_7">
      <defs>
       <path id="mfe5463aa3c" d="M 0 0 
L -3.5 0 
" style="stroke: #000000; stroke-width: 0.8"/>
      </defs>
      <g>
       <use xlink:href="#mfe5463aa3c" x="40.603125" y="188.638125" style="stroke: #000000; stroke-width: 0.8"/>
      </g>
     </g>
     <g id="text_8">
      <!-- 0 -->
      <g transform="translate(27.240625 192.437344) scale(0.1 -0.1)">
       <use xlink:href="#DejaVuSans-30"/>
      </g>
     </g>
    </g>
    <g id="ytick_2">
     <g id="line2d_8">
      <g>
       <use xlink:href="#mfe5463aa3c" x="40.603125" y="161.32778" style="stroke: #000000; stroke-width: 0.8"/>
      </g>
     </g>
     <g id="text_9">
      <!-- 2 -->
      <g transform="translate(27.240625 165.126999) scale(0.1 -0.1)">
       <use xlink:href="#DejaVuSans-32"/>
      </g>
     </g>
    </g>
    <g id="ytick_3">
     <g id="line2d_9">
      <g>
       <use xlink:href="#mfe5463aa3c" x="40.603125" y="134.017435" style="stroke: #000000; stroke-width: 0.8"/>
      </g>
     </g>
     <g id="text_10">
      <!-- 4 -->
      <g transform="translate(27.240625 137.816654) scale(0.1 -0.1)">
       <use xlink:href="#DejaVuSans-34"/>
      </g>
     </g>
    </g>
    <g id="ytick_4">
     <g id="line2d_10">
      <g>
       <use xlink:href="#mfe5463aa3c" x="40.603125" y="106.707091" style="stroke: #000000; stroke-width: 0.8"/>
      </g>
     </g>
     <g id="text_11">
      <!-- 6 -->
      <g transform="translate(27.240625 110.506309) scale(0.1 -0.1)">
       <defs>
        <path id="DejaVuSans-36" d="M 2113 2584 
Q 1688 2584 1439 2293 
Q 1191 2003 1191 1497 
Q 1191 994 1439 701 
Q 1688 409 2113 409 
Q 2538 409 2786 701 
Q 3034 994 3034 1497 
Q 3034 2003 2786 2293 
Q 2538 2584 2113 2584 
z
M 3366 4563 
L 3366 3988 
Q 3128 4100 2886 4159 
Q 2644 4219 2406 4219 
Q 1781 4219 1451 3797 
Q 1122 3375 1075 2522 
Q 1259 2794 1537 2939 
Q 1816 3084 2150 3084 
Q 2853 3084 3261 2657 
Q 3669 2231 3669 1497 
Q 3669 778 3244 343 
Q 2819 -91 2113 -91 
Q 1303 -91 875 529 
Q 447 1150 447 2328 
Q 447 3434 972 4092 
Q 1497 4750 2381 4750 
Q 2619 4750 2861 4703 
Q 3103 4656 3366 4563 
z
" transform="scale(0.015625)"/>
       </defs>
       <use xlink:href="#DejaVuSans-36"/>
      </g>
     </g>
    </g>
    <g id="ytick_5">
     <g id="line2d_11">
      <g>
       <use xlink:href="#mfe5463aa3c" x="40.603125" y="79.396746" style="stroke: #000000; stroke-width: 0.8"/>
      </g>
     </g>
     <g id="text_12">
      <!-- 8 -->
      <g transform="translate(27.240625 83.195964) scale(0.1 -0.1)">
       <defs>
        <path id="DejaVuSans-38" d="M 2034 2216 
Q 1584 2216 1326 1975 
Q 1069 1734 1069 1313 
Q 1069 891 1326 650 
Q 1584 409 2034 409 
Q 2484 409 2743 651 
Q 3003 894 3003 1313 
Q 3003 1734 2745 1975 
Q 2488 2216 2034 2216 
z
M 1403 2484 
Q 997 2584 770 2862 
Q 544 3141 544 3541 
Q 544 4100 942 4425 
Q 1341 4750 2034 4750 
Q 2731 4750 3128 4425 
Q 3525 4100 3525 3541 
Q 3525 3141 3298 2862 
Q 3072 2584 2669 2484 
Q 3125 2378 3379 2068 
Q 3634 1759 3634 1313 
Q 3634 634 3220 271 
Q 2806 -91 2034 -91 
Q 1263 -91 848 271 
Q 434 634 434 1313 
Q 434 1759 690 2068 
Q 947 2378 1403 2484 
z
M 1172 3481 
Q 1172 3119 1398 2916 
Q 1625 2713 2034 2713 
Q 2441 2713 2670 2916 
Q 2900 3119 2900 3481 
Q 2900 3844 2670 4047 
Q 2441 4250 2034 4250 
Q 1625 4250 1398 4047 
Q 1172 3844 1172 3481 
z
" transform="scale(0.015625)"/>
       </defs>
       <use xlink:href="#DejaVuSans-38"/>
      </g>
     </g>
    </g>
    <g id="ytick_6">
     <g id="line2d_12">
      <g>
       <use xlink:href="#mfe5463aa3c" x="40.603125" y="52.086401" style="stroke: #000000; stroke-width: 0.8"/>
      </g>
     </g>
     <g id="text_13">
      <!-- 10 -->
      <g transform="translate(20.878125 55.88562) scale(0.1 -0.1)">
       <use xlink:href="#DejaVuSans-31"/>
       <use xlink:href="#DejaVuSans-30" transform="translate(63.623047 0)"/>
      </g>
     </g>
    </g>
    <g id="ytick_7">
     <g id="line2d_13">
      <g>
       <use xlink:href="#mfe5463aa3c" x="40.603125" y="24.776056" style="stroke: #000000; stroke-width: 0.8"/>
      </g>
     </g>
     <g id="text_14">
      <!-- 12 -->
      <g transform="translate(20.878125 28.575275) scale(0.1 -0.1)">
       <use xlink:href="#DejaVuSans-31"/>
       <use xlink:href="#DejaVuSans-32" transform="translate(63.623047 0)"/>
      </g>
     </g>
    </g>
    <g id="text_15">
     <!-- probability -->
     <g transform="translate(14.798438 132.153906) rotate(-90) scale(0.1 -0.1)">
      <defs>
       <path id="DejaVuSans-70" d="M 1159 525 
L 1159 -1331 
L 581 -1331 
L 581 3500 
L 1159 3500 
L 1159 2969 
Q 1341 3281 1617 3432 
Q 1894 3584 2278 3584 
Q 2916 3584 3314 3078 
Q 3713 2572 3713 1747 
Q 3713 922 3314 415 
Q 2916 -91 2278 -91 
Q 1894 -91 1617 61 
Q 1341 213 1159 525 
z
M 3116 1747 
Q 3116 2381 2855 2742 
Q 2594 3103 2138 3103 
Q 1681 3103 1420 2742 
Q 1159 2381 1159 1747 
Q 1159 1113 1420 752 
Q 1681 391 2138 391 
Q 2594 391 2855 752 
Q 3116 1113 3116 1747 
z
" transform="scale(0.015625)"/>
       <path id="DejaVuSans-6f" d="M 1959 3097 
Q 1497 3097 1228 2736 
Q 959 2375 959 1747 
Q 959 1119 1226 758 
Q 1494 397 1959 397 
Q 2419 397 2687 759 
Q 2956 1122 2956 1747 
Q 2956 2369 2687 2733 
Q 2419 3097 1959 3097 
z
M 1959 3584 
Q 2709 3584 3137 3096 
Q 3566 2609 3566 1747 
Q 3566 888 3137 398 
Q 2709 -91 1959 -91 
Q 1206 -91 779 398 
Q 353 888 353 1747 
Q 353 2609 779 3096 
Q 1206 3584 1959 3584 
z
" transform="scale(0.015625)"/>
       <path id="DejaVuSans-62" d="M 3116 1747 
Q 3116 2381 2855 2742 
Q 2594 3103 2138 3103 
Q 1681 3103 1420 2742 
Q 1159 2381 1159 1747 
Q 1159 1113 1420 752 
Q 1681 391 2138 391 
Q 2594 391 2855 752 
Q 3116 1113 3116 1747 
z
M 1159 2969 
Q 1341 3281 1617 3432 
Q 1894 3584 2278 3584 
Q 2916 3584 3314 3078 
Q 3713 2572 3713 1747 
Q 3713 922 3314 415 
Q 2916 -91 2278 -91 
Q 1894 -91 1617 61 
Q 1341 213 1159 525 
L 1159 0 
L 581 0 
L 581 4863 
L 1159 4863 
L 1159 2969 
z
" transform="scale(0.015625)"/>
       <path id="DejaVuSans-69" d="M 603 3500 
L 1178 3500 
L 1178 0 
L 603 0 
L 603 3500 
z
M 603 4863 
L 1178 4863 
L 1178 4134 
L 603 4134 
L 603 4863 
z
" transform="scale(0.015625)"/>
       <path id="DejaVuSans-6c" d="M 603 4863 
L 1178 4863 
L 1178 0 
L 603 0 
L 603 4863 
z
" transform="scale(0.015625)"/>
       <path id="DejaVuSans-74" d="M 1172 4494 
L 1172 3500 
L 2356 3500 
L 2356 3053 
L 1172 3053 
L 1172 1153 
Q 1172 725 1289 603 
Q 1406 481 1766 481 
L 2356 481 
L 2356 0 
L 1766 0 
Q 1100 0 847 248 
Q 594 497 594 1153 
L 594 3053 
L 172 3053 
L 172 3500 
L 594 3500 
L 594 4494 
L 1172 4494 
z
" transform="scale(0.015625)"/>
       <path id="DejaVuSans-79" d="M 2059 -325 
Q 1816 -950 1584 -1140 
Q 1353 -1331 966 -1331 
L 506 -1331 
L 506 -850 
L 844 -850 
Q 1081 -850 1212 -737 
Q 1344 -625 1503 -206 
L 1606 56 
L 191 3500 
L 800 3500 
L 1894 763 
L 2988 3500 
L 3597 3500 
L 2059 -325 
z
" transform="scale(0.015625)"/>
      </defs>
      <use xlink:href="#DejaVuSans-70"/>
      <use xlink:href="#DejaVuSans-72" transform="translate(63.476562 0)"/>
      <use xlink:href="#DejaVuSans-6f" transform="translate(102.339844 0)"/>
      <use xlink:href="#DejaVuSans-62" transform="translate(163.521484 0)"/>
      <use xlink:href="#DejaVuSans-61" transform="translate(226.998047 0)"/>
      <use xlink:href="#DejaVuSans-62" transform="translate(288.277344 0)"/>
      <use xlink:href="#DejaVuSans-69" transform="translate(351.753906 0)"/>
      <use xlink:href="#DejaVuSans-6c" transform="translate(379.537109 0)"/>
      <use xlink:href="#DejaVuSans-69" transform="translate(407.320312 0)"/>
      <use xlink:href="#DejaVuSans-74" transform="translate(435.103516 0)"/>
      <use xlink:href="#DejaVuSans-79" transform="translate(474.3125 0)"/>
     </g>
    </g>
   </g>
   <g id="patch_61">
    <path d="M 40.603125 188.638125 
L 40.603125 22.318125 
" style="fill: none; stroke: #000000; stroke-width: 0.8; stroke-linejoin: miter; stroke-linecap: square"/>
   </g>
   <g id="patch_62">
    <path d="M 487.003125 188.638125 
L 487.003125 22.318125 
" style="fill: none; stroke: #000000; stroke-width: 0.8; stroke-linejoin: miter; stroke-linecap: square"/>
   </g>
   <g id="patch_63">
    <path d="M 40.603125 188.638125 
L 487.003125 188.638125 
" style="fill: none; stroke: #000000; stroke-width: 0.8; stroke-linejoin: miter; stroke-linecap: square"/>
   </g>
   <g id="patch_64">
    <path d="M 40.603125 22.318125 
L 487.003125 22.318125 
" style="fill: none; stroke: #000000; stroke-width: 0.8; stroke-linejoin: miter; stroke-linecap: square"/>
   </g>
   <g id="text_16">
    <!-- Same target speed: episode rewards distribution -->
    <g transform="translate(117.293438 16.318125) scale(0.12 -0.12)">
     <defs>
      <path id="DejaVuSans-53" d="M 3425 4513 
L 3425 3897 
Q 3066 4069 2747 4153 
Q 2428 4238 2131 4238 
Q 1616 4238 1336 4038 
Q 1056 3838 1056 3469 
Q 1056 3159 1242 3001 
Q 1428 2844 1947 2747 
L 2328 2669 
Q 3034 2534 3370 2195 
Q 3706 1856 3706 1288 
Q 3706 609 3251 259 
Q 2797 -91 1919 -91 
Q 1588 -91 1214 -16 
Q 841 59 441 206 
L 441 856 
Q 825 641 1194 531 
Q 1563 422 1919 422 
Q 2459 422 2753 634 
Q 3047 847 3047 1241 
Q 3047 1584 2836 1778 
Q 2625 1972 2144 2069 
L 1759 2144 
Q 1053 2284 737 2584 
Q 422 2884 422 3419 
Q 422 4038 858 4394 
Q 1294 4750 2059 4750 
Q 2388 4750 2728 4690 
Q 3069 4631 3425 4513 
z
" transform="scale(0.015625)"/>
      <path id="DejaVuSans-6d" d="M 3328 2828 
Q 3544 3216 3844 3400 
Q 4144 3584 4550 3584 
Q 5097 3584 5394 3201 
Q 5691 2819 5691 2113 
L 5691 0 
L 5113 0 
L 5113 2094 
Q 5113 2597 4934 2840 
Q 4756 3084 4391 3084 
Q 3944 3084 3684 2787 
Q 3425 2491 3425 1978 
L 3425 0 
L 2847 0 
L 2847 2094 
Q 2847 2600 2669 2842 
Q 2491 3084 2119 3084 
Q 1678 3084 1418 2786 
Q 1159 2488 1159 1978 
L 1159 0 
L 581 0 
L 581 3500 
L 1159 3500 
L 1159 2956 
Q 1356 3278 1631 3431 
Q 1906 3584 2284 3584 
Q 2666 3584 2933 3390 
Q 3200 3197 3328 2828 
z
" transform="scale(0.015625)"/>
      <path id="DejaVuSans-73" d="M 2834 3397 
L 2834 2853 
Q 2591 2978 2328 3040 
Q 2066 3103 1784 3103 
Q 1356 3103 1142 2972 
Q 928 2841 928 2578 
Q 928 2378 1081 2264 
Q 1234 2150 1697 2047 
L 1894 2003 
Q 2506 1872 2764 1633 
Q 3022 1394 3022 966 
Q 3022 478 2636 193 
Q 2250 -91 1575 -91 
Q 1294 -91 989 -36 
Q 684 19 347 128 
L 347 722 
Q 666 556 975 473 
Q 1284 391 1588 391 
Q 1994 391 2212 530 
Q 2431 669 2431 922 
Q 2431 1156 2273 1281 
Q 2116 1406 1581 1522 
L 1381 1569 
Q 847 1681 609 1914 
Q 372 2147 372 2553 
Q 372 3047 722 3315 
Q 1072 3584 1716 3584 
Q 2034 3584 2315 3537 
Q 2597 3491 2834 3397 
z
" transform="scale(0.015625)"/>
      <path id="DejaVuSans-3a" d="M 750 794 
L 1409 794 
L 1409 0 
L 750 0 
L 750 794 
z
M 750 3309 
L 1409 3309 
L 1409 2516 
L 750 2516 
L 750 3309 
z
" transform="scale(0.015625)"/>
      <path id="DejaVuSans-75" d="M 544 1381 
L 544 3500 
L 1119 3500 
L 1119 1403 
Q 1119 906 1312 657 
Q 1506 409 1894 409 
Q 2359 409 2629 706 
Q 2900 1003 2900 1516 
L 2900 3500 
L 3475 3500 
L 3475 0 
L 2900 0 
L 2900 538 
Q 2691 219 2414 64 
Q 2138 -91 1772 -91 
Q 1169 -91 856 284 
Q 544 659 544 1381 
z
M 1991 3584 
L 1991 3584 
z
" transform="scale(0.015625)"/>
      <path id="DejaVuSans-6e" d="M 3513 2113 
L 3513 0 
L 2938 0 
L 2938 2094 
Q 2938 2591 2744 2837 
Q 2550 3084 2163 3084 
Q 1697 3084 1428 2787 
Q 1159 2491 1159 1978 
L 1159 0 
L 581 0 
L 581 3500 
L 1159 3500 
L 1159 2956 
Q 1366 3272 1645 3428 
Q 1925 3584 2291 3584 
Q 2894 3584 3203 3211 
Q 3513 2838 3513 2113 
z
" transform="scale(0.015625)"/>
     </defs>
     <use xlink:href="#DejaVuSans-53"/>
     <use xlink:href="#DejaVuSans-61" transform="translate(63.476562 0)"/>
     <use xlink:href="#DejaVuSans-6d" transform="translate(124.755859 0)"/>
     <use xlink:href="#DejaVuSans-65" transform="translate(222.167969 0)"/>
     <use xlink:href="#DejaVuSans-20" transform="translate(283.691406 0)"/>
     <use xlink:href="#DejaVuSans-74" transform="translate(315.478516 0)"/>
     <use xlink:href="#DejaVuSans-61" transform="translate(354.6875 0)"/>
     <use xlink:href="#DejaVuSans-72" transform="translate(415.966797 0)"/>
     <use xlink:href="#DejaVuSans-67" transform="translate(455.330078 0)"/>
     <use xlink:href="#DejaVuSans-65" transform="translate(518.806641 0)"/>
     <use xlink:href="#DejaVuSans-74" transform="translate(580.330078 0)"/>
     <use xlink:href="#DejaVuSans-20" transform="translate(619.539062 0)"/>
     <use xlink:href="#DejaVuSans-73" transform="translate(651.326172 0)"/>
     <use xlink:href="#DejaVuSans-70" transform="translate(703.425781 0)"/>
     <use xlink:href="#DejaVuSans-65" transform="translate(766.902344 0)"/>
     <use xlink:href="#DejaVuSans-65" transform="translate(828.425781 0)"/>
     <use xlink:href="#DejaVuSans-64" transform="translate(889.949219 0)"/>
     <use xlink:href="#DejaVuSans-3a" transform="translate(953.425781 0)"/>
     <use xlink:href="#DejaVuSans-20" transform="translate(987.117188 0)"/>
     <use xlink:href="#DejaVuSans-65" transform="translate(1018.904297 0)"/>
     <use xlink:href="#DejaVuSans-70" transform="translate(1080.427734 0)"/>
     <use xlink:href="#DejaVuSans-69" transform="translate(1143.904297 0)"/>
     <use xlink:href="#DejaVuSans-73" transform="translate(1171.6875 0)"/>
     <use xlink:href="#DejaVuSans-6f" transform="translate(1223.787109 0)"/>
     <use xlink:href="#DejaVuSans-64" transform="translate(1284.96875 0)"/>
     <use xlink:href="#DejaVuSans-65" transform="translate(1348.445312 0)"/>
     <use xlink:href="#DejaVuSans-20" transform="translate(1409.96875 0)"/>
     <use xlink:href="#DejaVuSans-72" transform="translate(1441.755859 0)"/>
     <use xlink:href="#DejaVuSans-65" transform="translate(1480.619141 0)"/>
     <use xlink:href="#DejaVuSans-77" transform="translate(1542.142578 0)"/>
     <use xlink:href="#DejaVuSans-61" transform="translate(1623.929688 0)"/>
     <use xlink:href="#DejaVuSans-72" transform="translate(1685.208984 0)"/>
     <use xlink:href="#DejaVuSans-64" transform="translate(1724.572266 0)"/>
     <use xlink:href="#DejaVuSans-73" transform="translate(1788.048828 0)"/>
     <use xlink:href="#DejaVuSans-20" transform="translate(1840.148438 0)"/>
     <use xlink:href="#DejaVuSans-64" transform="translate(1871.935547 0)"/>
     <use xlink:href="#DejaVuSans-69" transform="translate(1935.412109 0)"/>
     <use xlink:href="#DejaVuSans-73" transform="translate(1963.195312 0)"/>
     <use xlink:href="#DejaVuSans-74" transform="translate(2015.294922 0)"/>
     <use xlink:href="#DejaVuSans-72" transform="translate(2054.503906 0)"/>
     <use xlink:href="#DejaVuSans-69" transform="translate(2095.617188 0)"/>
     <use xlink:href="#DejaVuSans-62" transform="translate(2123.400391 0)"/>
     <use xlink:href="#DejaVuSans-75" transform="translate(2186.876953 0)"/>
     <use xlink:href="#DejaVuSans-74" transform="translate(2250.255859 0)"/>
     <use xlink:href="#DejaVuSans-69" transform="translate(2289.464844 0)"/>
     <use xlink:href="#DejaVuSans-6f" transform="translate(2317.248047 0)"/>
     <use xlink:href="#DejaVuSans-6e" transform="translate(2378.429688 0)"/>
    </g>
   </g>
   <g id="legend_1">
    <g id="patch_65">
     <path d="M 47.603125 59.674375 
L 99.7875 59.674375 
Q 101.7875 59.674375 101.7875 57.674375 
L 101.7875 29.318125 
Q 101.7875 27.318125 99.7875 27.318125 
L 47.603125 27.318125 
Q 45.603125 27.318125 45.603125 29.318125 
L 45.603125 57.674375 
Q 45.603125 59.674375 47.603125 59.674375 
z
" style="fill: #ffffff; opacity: 0.8; stroke: #cccccc; stroke-linejoin: miter"/>
    </g>
    <g id="patch_66">
     <path d="M 49.603125 38.916562 
L 69.603125 38.916562 
L 69.603125 31.916562 
L 49.603125 31.916562 
z
" style="fill: #1f77b4; opacity: 0.5"/>
    </g>
    <g id="text_17">
     <!-- SAC -->
     <g transform="translate(77.603125 38.916562) scale(0.1 -0.1)">
      <defs>
       <path id="DejaVuSans-41" d="M 2188 4044 
L 1331 1722 
L 3047 1722 
L 2188 4044 
z
M 1831 4666 
L 2547 4666 
L 4325 0 
L 3669 0 
L 3244 1197 
L 1141 1197 
L 716 0 
L 50 0 
L 1831 4666 
z
" transform="scale(0.015625)"/>
       <path id="DejaVuSans-43" d="M 4122 4306 
L 4122 3641 
Q 3803 3938 3442 4084 
Q 3081 4231 2675 4231 
Q 1875 4231 1450 3742 
Q 1025 3253 1025 2328 
Q 1025 1406 1450 917 
Q 1875 428 2675 428 
Q 3081 428 3442 575 
Q 3803 722 4122 1019 
L 4122 359 
Q 3791 134 3420 21 
Q 3050 -91 2638 -91 
Q 1578 -91 968 557 
Q 359 1206 359 2328 
Q 359 3453 968 4101 
Q 1578 4750 2638 4750 
Q 3056 4750 3426 4639 
Q 3797 4528 4122 4306 
z
" transform="scale(0.015625)"/>
      </defs>
      <use xlink:href="#DejaVuSans-53"/>
      <use xlink:href="#DejaVuSans-41" transform="translate(65.351562 0)"/>
      <use xlink:href="#DejaVuSans-43" transform="translate(132.009766 0)"/>
     </g>
    </g>
    <g id="patch_67">
     <path d="M 49.603125 53.594687 
L 69.603125 53.594687 
L 69.603125 46.594687 
L 49.603125 46.594687 
z
" style="fill: #ff7f0e; opacity: 0.5"/>
    </g>
    <g id="text_18">
     <!-- HL -->
     <g transform="translate(77.603125 53.594687) scale(0.1 -0.1)">
      <defs>
       <path id="DejaVuSans-48" d="M 628 4666 
L 1259 4666 
L 1259 2753 
L 3553 2753 
L 3553 4666 
L 4184 4666 
L 4184 0 
L 3553 0 
L 3553 2222 
L 1259 2222 
L 1259 0 
L 628 0 
L 628 4666 
z
" transform="scale(0.015625)"/>
       <path id="DejaVuSans-4c" d="M 628 4666 
L 1259 4666 
L 1259 531 
L 3531 531 
L 3531 0 
L 628 0 
L 628 4666 
z
" transform="scale(0.015625)"/>
      </defs>
      <use xlink:href="#DejaVuSans-48"/>
      <use xlink:href="#DejaVuSans-4c" transform="translate(75.195312 0)"/>
     </g>
    </g>
   </g>
  </g>
 </g>
 <defs>
  <clipPath id="p203a44e679">
   <rect x="40.603125" y="22.318125" width="446.4" height="166.32"/>
  </clipPath>
 </defs>
</svg>
