<?xml version="1.0" encoding="utf-8" standalone="no"?>
<!DOCTYPE svg PUBLIC "-//W3C//DTD SVG 1.1//EN"
  "http://www.w3.org/Graphics/SVG/1.1/DTD/svg11.dtd">
<svg xmlns:xlink="http://www.w3.org/1999/xlink" width="455.895313pt" height="211.07625pt" viewBox="0 0 455.895313 211.07625" xmlns="http://www.w3.org/2000/svg" version="1.1">
 <metadata>
  <rdf:RDF xmlns:dc="http://purl.org/dc/elements/1.1/" xmlns:cc="http://creativecommons.org/ns#" xmlns:rdf="http://www.w3.org/1999/02/22-rdf-syntax-ns#">
   <cc:Work>
    <dc:type rdf:resource="http://purl.org/dc/dcmitype/StillImage"/>
    <dc:date>2024-12-12T18:03:46.838417</dc:date>
    <dc:format>image/svg+xml</dc:format>
    <dc:creator>
     <cc:Agent>
      <dc:title>Matplotlib v3.9.3, https://matplotlib.org/</dc:title>
     </cc:Agent>
    </dc:creator>
   </cc:Work>
  </rdf:RDF>
 </metadata>
 <defs>
  <style type="text/css">*{stroke-linejoin: round; stroke-linecap: butt}</style>
 </defs>
 <g id="figure_1">
  <g id="patch_1">
   <path d="M 0 211.07625 
L 455.895313 211.07625 
L 455.895313 0 
L 0 0 
z
" style="fill: #ffffff"/>
  </g>
  <g id="axes_1">
   <g id="patch_2">
    <path d="M 50.14375 173.52 
L 440.74375 173.52 
L 440.74375 7.2 
L 50.14375 7.2 
z
" style="fill: #ffffff"/>
   </g>
   <g id="patch_3">
    <path d="M 88.973027 173.52 
L 107.487276 173.52 
L 107.487276 170.265205 
L 88.973027 170.265205 
z
" clip-path="url(#p0d9be231ef)" style="fill: #b22222; opacity: 0.8"/>
   </g>
   <g id="patch_4">
    <path d="M 107.487276 173.52 
L 126.001525 173.52 
L 126.001525 164.840548 
L 107.487276 164.840548 
z
" clip-path="url(#p0d9be231ef)" style="fill: #b22222; opacity: 0.8"/>
   </g>
   <g id="patch_5">
    <path d="M 126.001525 173.52 
L 144.515773 173.52 
L 144.515773 167.010411 
L 126.001525 167.010411 
z
" clip-path="url(#p0d9be231ef)" style="fill: #b22222; opacity: 0.8"/>
   </g>
   <g id="patch_6">
    <path d="M 144.515773 173.52 
L 163.030022 173.52 
L 163.030022 165.925479 
L 144.515773 165.925479 
z
" clip-path="url(#p0d9be231ef)" style="fill: #b22222; opacity: 0.8"/>
   </g>
   <g id="patch_7">
    <path d="M 163.030022 173.52 
L 181.54427 173.52 
L 181.54427 161.043288 
L 163.030022 161.043288 
z
" clip-path="url(#p0d9be231ef)" style="fill: #b22222; opacity: 0.8"/>
   </g>
   <g id="patch_8">
    <path d="M 181.54427 173.52 
L 200.058519 173.52 
L 200.058519 158.873425 
L 181.54427 158.873425 
z
" clip-path="url(#p0d9be231ef)" style="fill: #b22222; opacity: 0.8"/>
   </g>
   <g id="patch_9">
    <path d="M 200.058519 173.52 
L 218.572767 173.52 
L 218.572767 162.670685 
L 200.058519 162.670685 
z
" clip-path="url(#p0d9be231ef)" style="fill: #b22222; opacity: 0.8"/>
   </g>
   <g id="patch_10">
    <path d="M 218.572767 173.52 
L 237.087016 173.52 
L 237.087016 148.566575 
L 218.572767 148.566575 
z
" clip-path="url(#p0d9be231ef)" style="fill: #b22222; opacity: 0.8"/>
   </g>
   <g id="patch_11">
    <path d="M 237.087016 173.52 
L 255.601264 173.52 
L 255.601264 148.02411 
L 237.087016 148.02411 
z
" clip-path="url(#p0d9be231ef)" style="fill: #b22222; opacity: 0.8"/>
   </g>
   <g id="patch_12">
    <path d="M 255.601264 173.52 
L 274.115513 173.52 
L 274.115513 162.670685 
L 255.601264 162.670685 
z
" clip-path="url(#p0d9be231ef)" style="fill: #b22222; opacity: 0.8"/>
   </g>
   <g id="patch_13">
    <path d="M 274.115513 173.52 
L 292.629762 173.52 
L 292.629762 147.481644 
L 274.115513 147.481644 
z
" clip-path="url(#p0d9be231ef)" style="fill: #b22222; opacity: 0.8"/>
   </g>
   <g id="patch_14">
    <path d="M 292.629762 173.52 
L 311.14401 173.52 
L 311.14401 154.533699 
L 292.629762 154.533699 
z
" clip-path="url(#p0d9be231ef)" style="fill: #b22222; opacity: 0.8"/>
   </g>
   <g id="patch_15">
    <path d="M 311.14401 173.52 
L 329.658259 173.52 
L 329.658259 144.226849 
L 311.14401 144.226849 
z
" clip-path="url(#p0d9be231ef)" style="fill: #b22222; opacity: 0.8"/>
   </g>
   <g id="patch_16">
    <path d="M 329.658259 173.52 
L 348.172507 173.52 
L 348.172507 148.02411 
L 329.658259 148.02411 
z
" clip-path="url(#p0d9be231ef)" style="fill: #b22222; opacity: 0.8"/>
   </g>
   <g id="patch_17">
    <path d="M 348.172507 173.52 
L 366.686756 173.52 
L 366.686756 129.580274 
L 348.172507 129.580274 
z
" clip-path="url(#p0d9be231ef)" style="fill: #b22222; opacity: 0.8"/>
   </g>
   <g id="patch_18">
    <path d="M 366.686756 173.52 
L 385.201004 173.52 
L 385.201004 151.82137 
L 366.686756 151.82137 
z
" clip-path="url(#p0d9be231ef)" style="fill: #b22222; opacity: 0.8"/>
   </g>
   <g id="patch_19">
    <path d="M 385.201004 173.52 
L 403.715253 173.52 
L 403.715253 139.887123 
L 385.201004 139.887123 
z
" clip-path="url(#p0d9be231ef)" style="fill: #b22222; opacity: 0.8"/>
   </g>
   <g id="patch_20">
    <path d="M 403.715253 173.52 
L 422.229501 173.52 
L 422.229501 124.698082 
L 403.715253 124.698082 
z
" clip-path="url(#p0d9be231ef)" style="fill: #b22222; opacity: 0.8"/>
   </g>
   <g id="patch_21">
    <path d="M 422.229501 173.52 
L 440.74375 173.52 
L 440.74375 15.12 
L 422.229501 15.12 
z
" clip-path="url(#p0d9be231ef)" style="fill: #b22222; opacity: 0.8"/>
   </g>
   <g id="patch_22">
    <path d="M -86.405547 173.52 
L -69.321443 173.52 
L -69.321443 171.719628 
L -86.405547 171.719628 
z
" clip-path="url(#p0d9be231ef)" style="fill: #0000ff; opacity: 0.8"/>
   </g>
   <g id="patch_23">
    <path d="M -69.321443 173.52 
L -52.237338 173.52 
L -52.237338 172.319752 
L -69.321443 172.319752 
z
" clip-path="url(#p0d9be231ef)" style="fill: #0000ff; opacity: 0.8"/>
   </g>
   <g id="patch_24">
    <path d="M -52.237338 173.52 
L -35.153234 173.52 
L -35.153234 171.119504 
L -52.237338 171.119504 
z
" clip-path="url(#p0d9be231ef)" style="fill: #0000ff; opacity: 0.8"/>
   </g>
   <g id="patch_25">
    <path d="M -35.153234 173.52 
L -18.069129 173.52 
L -18.069129 171.719628 
L -35.153234 171.719628 
z
" clip-path="url(#p0d9be231ef)" style="fill: #0000ff; opacity: 0.8"/>
   </g>
   <g id="patch_26">
    <path d="M -18.069129 173.52 
L -0.985025 173.52 
L -0.985025 171.119504 
L -18.069129 171.119504 
z
" clip-path="url(#p0d9be231ef)" style="fill: #0000ff; opacity: 0.8"/>
   </g>
   <g id="patch_27">
    <path d="M -0.985025 173.52 
L 16.09908 173.52 
L 16.09908 171.119504 
L -0.985025 171.119504 
z
" clip-path="url(#p0d9be231ef)" style="fill: #0000ff; opacity: 0.8"/>
   </g>
   <g id="patch_28">
    <path d="M 16.09908 173.52 
L 33.183184 173.52 
L 33.183184 169.319132 
L 16.09908 169.319132 
z
" clip-path="url(#p0d9be231ef)" style="fill: #0000ff; opacity: 0.8"/>
   </g>
   <g id="patch_29">
    <path d="M 33.183184 173.52 
L 50.267288 173.52 
L 50.267288 167.518759 
L 33.183184 167.518759 
z
" clip-path="url(#p0d9be231ef)" style="fill: #0000ff; opacity: 0.8"/>
   </g>
   <g id="patch_30">
    <path d="M 50.267288 173.52 
L 67.351393 173.52 
L 67.351393 166.918635 
L 50.267288 166.918635 
z
" clip-path="url(#p0d9be231ef)" style="fill: #0000ff; opacity: 0.8"/>
   </g>
   <g id="patch_31">
    <path d="M 67.351393 173.52 
L 84.435497 173.52 
L 84.435497 167.518759 
L 67.351393 167.518759 
z
" clip-path="url(#p0d9be231ef)" style="fill: #0000ff; opacity: 0.8"/>
   </g>
   <g id="patch_32">
    <path d="M 84.435497 173.52 
L 101.519602 173.52 
L 101.519602 169.919256 
L 84.435497 169.919256 
z
" clip-path="url(#p0d9be231ef)" style="fill: #0000ff; opacity: 0.8"/>
   </g>
   <g id="patch_33">
    <path d="M 101.519602 173.52 
L 118.603706 173.52 
L 118.603706 162.717767 
L 101.519602 162.717767 
z
" clip-path="url(#p0d9be231ef)" style="fill: #0000ff; opacity: 0.8"/>
   </g>
   <g id="patch_34">
    <path d="M 118.603706 173.52 
L 135.687811 173.52 
L 135.687811 168.118883 
L 118.603706 168.118883 
z
" clip-path="url(#p0d9be231ef)" style="fill: #0000ff; opacity: 0.8"/>
   </g>
   <g id="patch_35">
    <path d="M 135.687811 173.52 
L 152.771915 173.52 
L 152.771915 165.118263 
L 135.687811 165.118263 
z
" clip-path="url(#p0d9be231ef)" style="fill: #0000ff; opacity: 0.8"/>
   </g>
   <g id="patch_36">
    <path d="M 152.771915 173.52 
L 169.856019 173.52 
L 169.856019 157.916774 
L 152.771915 157.916774 
z
" clip-path="url(#p0d9be231ef)" style="fill: #0000ff; opacity: 0.8"/>
   </g>
   <g id="patch_37">
    <path d="M 169.856019 173.52 
L 186.940124 173.52 
L 186.940124 163.918015 
L 169.856019 163.918015 
z
" clip-path="url(#p0d9be231ef)" style="fill: #0000ff; opacity: 0.8"/>
   </g>
   <g id="patch_38">
    <path d="M 186.940124 173.52 
L 204.024228 173.52 
L 204.024228 161.517519 
L 186.940124 161.517519 
z
" clip-path="url(#p0d9be231ef)" style="fill: #0000ff; opacity: 0.8"/>
   </g>
   <g id="patch_39">
    <path d="M 204.024228 173.52 
L 221.108333 173.52 
L 221.108333 162.717767 
L 204.024228 162.717767 
z
" clip-path="url(#p0d9be231ef)" style="fill: #0000ff; opacity: 0.8"/>
   </g>
   <g id="patch_40">
    <path d="M 221.108333 173.52 
L 238.192437 173.52 
L 238.192437 157.916774 
L 221.108333 157.916774 
z
" clip-path="url(#p0d9be231ef)" style="fill: #0000ff; opacity: 0.8"/>
   </g>
   <g id="patch_41">
    <path d="M 238.192437 173.52 
L 255.276542 173.52 
L 255.276542 155.516278 
L 238.192437 155.516278 
z
" clip-path="url(#p0d9be231ef)" style="fill: #0000ff; opacity: 0.8"/>
   </g>
   <g id="patch_42">
    <path d="M 255.276542 173.52 
L 272.360646 173.52 
L 272.360646 145.314169 
L 255.276542 145.314169 
z
" clip-path="url(#p0d9be231ef)" style="fill: #0000ff; opacity: 0.8"/>
   </g>
   <g id="patch_43">
    <path d="M 272.360646 173.52 
L 289.444751 173.52 
L 289.444751 148.314789 
L 272.360646 148.314789 
z
" clip-path="url(#p0d9be231ef)" style="fill: #0000ff; opacity: 0.8"/>
   </g>
   <g id="patch_44">
    <path d="M 289.444751 173.52 
L 306.528855 173.52 
L 306.528855 145.914293 
L 289.444751 145.914293 
z
" clip-path="url(#p0d9be231ef)" style="fill: #0000ff; opacity: 0.8"/>
   </g>
   <g id="patch_45">
    <path d="M 306.528855 173.52 
L 323.612959 173.52 
L 323.612959 135.11206 
L 306.528855 135.11206 
z
" clip-path="url(#p0d9be231ef)" style="fill: #0000ff; opacity: 0.8"/>
   </g>
   <g id="patch_46">
    <path d="M 323.612959 173.52 
L 340.697064 173.52 
L 340.697064 142.913673 
L 323.612959 142.913673 
z
" clip-path="url(#p0d9be231ef)" style="fill: #0000ff; opacity: 0.8"/>
   </g>
   <g id="patch_47">
    <path d="M 340.697064 173.52 
L 357.781168 173.52 
L 357.781168 130.911192 
L 340.697064 130.911192 
z
" clip-path="url(#p0d9be231ef)" style="fill: #0000ff; opacity: 0.8"/>
   </g>
   <g id="patch_48">
    <path d="M 357.781168 173.52 
L 374.865273 173.52 
L 374.865273 119.508834 
L 357.781168 119.508834 
z
" clip-path="url(#p0d9be231ef)" style="fill: #0000ff; opacity: 0.8"/>
   </g>
   <g id="patch_49">
    <path d="M 374.865273 173.52 
L 391.949377 173.52 
L 391.949377 47.493947 
L 374.865273 47.493947 
z
" clip-path="url(#p0d9be231ef)" style="fill: #0000ff; opacity: 0.8"/>
   </g>
   <g id="patch_50">
    <path d="M 391.949377 173.52 
L 409.033482 173.52 
L 409.033482 114.707842 
L 391.949377 114.707842 
z
" clip-path="url(#p0d9be231ef)" style="fill: #0000ff; opacity: 0.8"/>
   </g>
   <g id="patch_51">
    <path d="M -1220.770378 173.52 
L -1186.98953 173.52 
L -1186.98953 172.912994 
L -1220.770378 172.912994 
z
" clip-path="url(#p0d9be231ef)" style="fill: #008000; opacity: 0.8"/>
   </g>
   <g id="patch_52">
    <path d="M -1186.98953 173.52 
L -1153.208682 173.52 
L -1153.208682 173.216497 
L -1186.98953 173.216497 
z
" clip-path="url(#p0d9be231ef)" style="fill: #008000; opacity: 0.8"/>
   </g>
   <g id="patch_53">
    <path d="M -1153.208682 173.52 
L -1119.427834 173.52 
L -1119.427834 173.216497 
L -1153.208682 173.216497 
z
" clip-path="url(#p0d9be231ef)" style="fill: #008000; opacity: 0.8"/>
   </g>
   <g id="patch_54">
    <path d="M -1119.427834 173.52 
L -1085.646985 173.52 
L -1085.646985 172.912994 
L -1119.427834 172.912994 
z
" clip-path="url(#p0d9be231ef)" style="fill: #008000; opacity: 0.8"/>
   </g>
   <g id="patch_55">
    <path d="M -1085.646985 173.52 
L -1051.866137 173.52 
L -1051.866137 173.216497 
L -1085.646985 173.216497 
z
" clip-path="url(#p0d9be231ef)" style="fill: #008000; opacity: 0.8"/>
   </g>
   <g id="patch_56">
    <path d="M -1051.866137 173.52 
L -1018.085289 173.52 
L -1018.085289 173.52 
L -1051.866137 173.52 
z
" clip-path="url(#p0d9be231ef)" style="fill: #008000; opacity: 0.8"/>
   </g>
   <g id="patch_57">
    <path d="M -1018.085289 173.52 
L -984.304441 173.52 
L -984.304441 172.305989 
L -1018.085289 172.305989 
z
" clip-path="url(#p0d9be231ef)" style="fill: #008000; opacity: 0.8"/>
   </g>
   <g id="patch_58">
    <path d="M -984.304441 173.52 
L -950.523593 173.52 
L -950.523593 172.609492 
L -984.304441 172.609492 
z
" clip-path="url(#p0d9be231ef)" style="fill: #008000; opacity: 0.8"/>
   </g>
   <g id="patch_59">
    <path d="M -950.523593 173.52 
L -916.742745 173.52 
L -916.742745 173.52 
L -950.523593 173.52 
z
" clip-path="url(#p0d9be231ef)" style="fill: #008000; opacity: 0.8"/>
   </g>
   <g id="patch_60">
    <path d="M -916.742745 173.52 
L -882.961896 173.52 
L -882.961896 172.912994 
L -916.742745 172.912994 
z
" clip-path="url(#p0d9be231ef)" style="fill: #008000; opacity: 0.8"/>
   </g>
   <g id="patch_61">
    <path d="M -882.961896 173.52 
L -849.181048 173.52 
L -849.181048 172.912994 
L -882.961896 172.912994 
z
" clip-path="url(#p0d9be231ef)" style="fill: #008000; opacity: 0.8"/>
   </g>
   <g id="patch_62">
    <path d="M -849.181048 173.52 
L -815.4002 173.52 
L -815.4002 173.216497 
L -849.181048 173.216497 
z
" clip-path="url(#p0d9be231ef)" style="fill: #008000; opacity: 0.8"/>
   </g>
   <g id="patch_63">
    <path d="M -815.4002 173.52 
L -781.619352 173.52 
L -781.619352 173.216497 
L -815.4002 173.216497 
z
" clip-path="url(#p0d9be231ef)" style="fill: #008000; opacity: 0.8"/>
   </g>
   <g id="patch_64">
    <path d="M -781.619352 173.52 
L -747.838504 173.52 
L -747.838504 172.912994 
L -781.619352 172.912994 
z
" clip-path="url(#p0d9be231ef)" style="fill: #008000; opacity: 0.8"/>
   </g>
   <g id="patch_65">
    <path d="M -747.838504 173.52 
L -714.057656 173.52 
L -714.057656 172.912994 
L -747.838504 172.912994 
z
" clip-path="url(#p0d9be231ef)" style="fill: #008000; opacity: 0.8"/>
   </g>
   <g id="patch_66">
    <path d="M -714.057656 173.52 
L -680.276807 173.52 
L -680.276807 173.216497 
L -714.057656 173.216497 
z
" clip-path="url(#p0d9be231ef)" style="fill: #008000; opacity: 0.8"/>
   </g>
   <g id="patch_67">
    <path d="M -680.276807 173.52 
L -646.495959 173.52 
L -646.495959 172.305989 
L -680.276807 172.305989 
z
" clip-path="url(#p0d9be231ef)" style="fill: #008000; opacity: 0.8"/>
   </g>
   <g id="patch_68">
    <path d="M -646.495959 173.52 
L -612.715111 173.52 
L -612.715111 172.002486 
L -646.495959 172.002486 
z
" clip-path="url(#p0d9be231ef)" style="fill: #008000; opacity: 0.8"/>
   </g>
   <g id="patch_69">
    <path d="M -612.715111 173.52 
L -578.934263 173.52 
L -578.934263 172.912994 
L -612.715111 172.912994 
z
" clip-path="url(#p0d9be231ef)" style="fill: #008000; opacity: 0.8"/>
   </g>
   <g id="patch_70">
    <path d="M -578.934263 173.52 
L -545.153415 173.52 
L -545.153415 172.305989 
L -578.934263 172.305989 
z
" clip-path="url(#p0d9be231ef)" style="fill: #008000; opacity: 0.8"/>
   </g>
   <g id="patch_71">
    <path d="M -545.153415 173.52 
L -511.372567 173.52 
L -511.372567 172.002486 
L -545.153415 172.002486 
z
" clip-path="url(#p0d9be231ef)" style="fill: #008000; opacity: 0.8"/>
   </g>
   <g id="patch_72">
    <path d="M -511.372567 173.52 
L -477.591718 173.52 
L -477.591718 172.305989 
L -511.372567 172.305989 
z
" clip-path="url(#p0d9be231ef)" style="fill: #008000; opacity: 0.8"/>
   </g>
   <g id="patch_73">
    <path d="M -477.591718 173.52 
L -443.81087 173.52 
L -443.81087 172.912994 
L -477.591718 172.912994 
z
" clip-path="url(#p0d9be231ef)" style="fill: #008000; opacity: 0.8"/>
   </g>
   <g id="patch_74">
    <path d="M -443.81087 173.52 
L -410.030022 173.52 
L -410.030022 172.305989 
L -443.81087 172.305989 
z
" clip-path="url(#p0d9be231ef)" style="fill: #008000; opacity: 0.8"/>
   </g>
   <g id="patch_75">
    <path d="M -410.030022 173.52 
L -376.249174 173.52 
L -376.249174 172.912994 
L -410.030022 172.912994 
z
" clip-path="url(#p0d9be231ef)" style="fill: #008000; opacity: 0.8"/>
   </g>
   <g id="patch_76">
    <path d="M -376.249174 173.52 
L -342.468326 173.52 
L -342.468326 170.788475 
L -376.249174 170.788475 
z
" clip-path="url(#p0d9be231ef)" style="fill: #008000; opacity: 0.8"/>
   </g>
   <g id="patch_77">
    <path d="M -342.468326 173.52 
L -308.687478 173.52 
L -308.687478 170.788475 
L -342.468326 170.788475 
z
" clip-path="url(#p0d9be231ef)" style="fill: #008000; opacity: 0.8"/>
   </g>
   <g id="patch_78">
    <path d="M -308.687478 173.52 
L -274.906629 173.52 
L -274.906629 168.967458 
L -308.687478 168.967458 
z
" clip-path="url(#p0d9be231ef)" style="fill: #008000; opacity: 0.8"/>
   </g>
   <g id="patch_79">
    <path d="M -274.906629 173.52 
L -241.125781 173.52 
L -241.125781 170.788475 
L -274.906629 170.788475 
z
" clip-path="url(#p0d9be231ef)" style="fill: #008000; opacity: 0.8"/>
   </g>
   <g id="patch_80">
    <path d="M -241.125781 173.52 
L -207.344933 173.52 
L -207.344933 171.091978 
L -241.125781 171.091978 
z
" clip-path="url(#p0d9be231ef)" style="fill: #008000; opacity: 0.8"/>
   </g>
   <g id="patch_81">
    <path d="M -207.344933 173.52 
L -173.564085 173.52 
L -173.564085 168.360452 
L -207.344933 168.360452 
z
" clip-path="url(#p0d9be231ef)" style="fill: #008000; opacity: 0.8"/>
   </g>
   <g id="patch_82">
    <path d="M -173.564085 173.52 
L -139.783237 173.52 
L -139.783237 168.967458 
L -173.564085 168.967458 
z
" clip-path="url(#p0d9be231ef)" style="fill: #008000; opacity: 0.8"/>
   </g>
   <g id="patch_83">
    <path d="M -139.783237 173.52 
L -106.002389 173.52 
L -106.002389 171.698983 
L -139.783237 171.698983 
z
" clip-path="url(#p0d9be231ef)" style="fill: #008000; opacity: 0.8"/>
   </g>
   <g id="patch_84">
    <path d="M -106.002389 173.52 
L -72.22154 173.52 
L -72.22154 169.877966 
L -106.002389 169.877966 
z
" clip-path="url(#p0d9be231ef)" style="fill: #008000; opacity: 0.8"/>
   </g>
   <g id="patch_85">
    <path d="M -72.22154 173.52 
L -38.440692 173.52 
L -38.440692 171.39548 
L -72.22154 171.39548 
z
" clip-path="url(#p0d9be231ef)" style="fill: #008000; opacity: 0.8"/>
   </g>
   <g id="patch_86">
    <path d="M -38.440692 173.52 
L -4.659844 173.52 
L -4.659844 168.05695 
L -38.440692 168.05695 
z
" clip-path="url(#p0d9be231ef)" style="fill: #008000; opacity: 0.8"/>
   </g>
   <g id="patch_87">
    <path d="M -4.659844 173.52 
L 29.121004 173.52 
L 29.121004 168.663955 
L -4.659844 168.663955 
z
" clip-path="url(#p0d9be231ef)" style="fill: #008000; opacity: 0.8"/>
   </g>
   <g id="patch_88">
    <path d="M 29.121004 173.52 
L 62.901852 173.52 
L 62.901852 167.753447 
L 29.121004 167.753447 
z
" clip-path="url(#p0d9be231ef)" style="fill: #008000; opacity: 0.8"/>
   </g>
   <g id="patch_89">
    <path d="M 62.901852 173.52 
L 96.682701 173.52 
L 96.682701 166.235933 
L 62.901852 166.235933 
z
" clip-path="url(#p0d9be231ef)" style="fill: #008000; opacity: 0.8"/>
   </g>
   <g id="patch_90">
    <path d="M 96.682701 173.52 
L 130.463549 173.52 
L 130.463549 162.897402 
L 96.682701 162.897402 
z
" clip-path="url(#p0d9be231ef)" style="fill: #008000; opacity: 0.8"/>
   </g>
   <g id="patch_91">
    <path d="M 130.463549 173.52 
L 164.244397 173.52 
L 164.244397 160.165877 
L 130.463549 160.165877 
z
" clip-path="url(#p0d9be231ef)" style="fill: #008000; opacity: 0.8"/>
   </g>
   <g id="patch_92">
    <path d="M 164.244397 173.52 
L 198.025245 173.52 
L 198.025245 159.255368 
L 164.244397 159.255368 
z
" clip-path="url(#p0d9be231ef)" style="fill: #008000; opacity: 0.8"/>
   </g>
   <g id="patch_93">
    <path d="M 198.025245 173.52 
L 231.806093 173.52 
L 231.806093 157.434351 
L 198.025245 157.434351 
z
" clip-path="url(#p0d9be231ef)" style="fill: #008000; opacity: 0.8"/>
   </g>
   <g id="patch_94">
    <path d="M 231.806093 173.52 
L 265.586941 173.52 
L 265.586941 156.22034 
L 231.806093 156.22034 
z
" clip-path="url(#p0d9be231ef)" style="fill: #008000; opacity: 0.8"/>
   </g>
   <g id="patch_95">
    <path d="M 265.586941 173.52 
L 299.36779 173.52 
L 299.36779 155.006329 
L 265.586941 155.006329 
z
" clip-path="url(#p0d9be231ef)" style="fill: #008000; opacity: 0.8"/>
   </g>
   <g id="patch_96">
    <path d="M 299.36779 173.52 
L 333.148638 173.52 
L 333.148638 155.613335 
L 299.36779 155.613335 
z
" clip-path="url(#p0d9be231ef)" style="fill: #008000; opacity: 0.8"/>
   </g>
   <g id="patch_97">
    <path d="M 333.148638 173.52 
L 366.929486 173.52 
L 366.929486 155.309832 
L 333.148638 155.309832 
z
" clip-path="url(#p0d9be231ef)" style="fill: #008000; opacity: 0.8"/>
   </g>
   <g id="patch_98">
    <path d="M 366.929486 173.52 
L 400.710334 173.52 
L 400.710334 132.850624 
L 366.929486 132.850624 
z
" clip-path="url(#p0d9be231ef)" style="fill: #008000; opacity: 0.8"/>
   </g>
   <g id="patch_99">
    <path d="M 400.710334 173.52 
L 434.491182 173.52 
L 434.491182 122.228026 
L 400.710334 122.228026 
z
" clip-path="url(#p0d9be231ef)" style="fill: #008000; opacity: 0.8"/>
   </g>
   <g id="patch_100">
    <path d="M -12693.677141 173.52 
L -12426.474208 173.52 
L -12426.474208 162.162474 
L -12693.677141 162.162474 
z
" clip-path="url(#p0d9be231ef)" style="fill: #ffa500; opacity: 0.8"/>
   </g>
   <g id="patch_101">
    <path d="M -12426.474208 173.52 
L -12159.271276 173.52 
L -12159.271276 171.448019 
L -12426.474208 171.448019 
z
" clip-path="url(#p0d9be231ef)" style="fill: #ffa500; opacity: 0.8"/>
   </g>
   <g id="patch_102">
    <path d="M -12159.271276 173.52 
L -11892.068343 173.52 
L -11892.068343 173.21304 
L -12159.271276 173.21304 
z
" clip-path="url(#p0d9be231ef)" style="fill: #ffa500; opacity: 0.8"/>
   </g>
   <g id="patch_103">
    <path d="M -11892.068343 173.52 
L -11624.86541 173.52 
L -11624.86541 173.28978 
L -11892.068343 173.28978 
z
" clip-path="url(#p0d9be231ef)" style="fill: #ffa500; opacity: 0.8"/>
   </g>
   <g id="patch_104">
    <path d="M -11624.86541 173.52 
L -11357.662477 173.52 
L -11357.662477 173.02119 
L -11624.86541 173.02119 
z
" clip-path="url(#p0d9be231ef)" style="fill: #ffa500; opacity: 0.8"/>
   </g>
   <g id="patch_105">
    <path d="M -11357.662477 173.52 
L -11090.459544 173.52 
L -11090.459544 173.1363 
L -11357.662477 173.1363 
z
" clip-path="url(#p0d9be231ef)" style="fill: #ffa500; opacity: 0.8"/>
   </g>
   <g id="patch_106">
    <path d="M -11090.459544 173.52 
L -10823.256611 173.52 
L -10823.256611 173.36652 
L -11090.459544 173.36652 
z
" clip-path="url(#p0d9be231ef)" style="fill: #ffa500; opacity: 0.8"/>
   </g>
   <g id="patch_107">
    <path d="M -10823.256611 173.52 
L -10556.053679 173.52 
L -10556.053679 173.36652 
L -10823.256611 173.36652 
z
" clip-path="url(#p0d9be231ef)" style="fill: #ffa500; opacity: 0.8"/>
   </g>
   <g id="patch_108">
    <path d="M -10556.053679 173.52 
L -10288.850746 173.52 
L -10288.850746 173.32815 
L -10556.053679 173.32815 
z
" clip-path="url(#p0d9be231ef)" style="fill: #ffa500; opacity: 0.8"/>
   </g>
   <g id="patch_109">
    <path d="M -10288.850746 173.52 
L -10021.647813 173.52 
L -10021.647813 173.28978 
L -10288.850746 173.28978 
z
" clip-path="url(#p0d9be231ef)" style="fill: #ffa500; opacity: 0.8"/>
   </g>
   <g id="patch_110">
    <path d="M -10021.647813 173.52 
L -9754.44488 173.52 
L -9754.44488 173.17467 
L -10021.647813 173.17467 
z
" clip-path="url(#p0d9be231ef)" style="fill: #ffa500; opacity: 0.8"/>
   </g>
   <g id="patch_111">
    <path d="M -9754.44488 173.52 
L -9487.241947 173.52 
L -9487.241947 173.36652 
L -9754.44488 173.36652 
z
" clip-path="url(#p0d9be231ef)" style="fill: #ffa500; opacity: 0.8"/>
   </g>
   <g id="patch_112">
    <path d="M -9487.241947 173.52 
L -9220.039014 173.52 
L -9220.039014 173.05956 
L -9487.241947 173.05956 
z
" clip-path="url(#p0d9be231ef)" style="fill: #ffa500; opacity: 0.8"/>
   </g>
   <g id="patch_113">
    <path d="M -9220.039014 173.52 
L -8952.836082 173.52 
L -8952.836082 173.40489 
L -9220.039014 173.40489 
z
" clip-path="url(#p0d9be231ef)" style="fill: #ffa500; opacity: 0.8"/>
   </g>
   <g id="patch_114">
    <path d="M -8952.836082 173.52 
L -8685.633149 173.52 
L -8685.633149 173.36652 
L -8952.836082 173.36652 
z
" clip-path="url(#p0d9be231ef)" style="fill: #ffa500; opacity: 0.8"/>
   </g>
   <g id="patch_115">
    <path d="M -8685.633149 173.52 
L -8418.430216 173.52 
L -8418.430216 173.28978 
L -8685.633149 173.28978 
z
" clip-path="url(#p0d9be231ef)" style="fill: #ffa500; opacity: 0.8"/>
   </g>
   <g id="patch_116">
    <path d="M -8418.430216 173.52 
L -8151.227283 173.52 
L -8151.227283 173.28978 
L -8418.430216 173.28978 
z
" clip-path="url(#p0d9be231ef)" style="fill: #ffa500; opacity: 0.8"/>
   </g>
   <g id="patch_117">
    <path d="M -8151.227283 173.52 
L -7884.02435 173.52 
L -7884.02435 173.17467 
L -8151.227283 173.17467 
z
" clip-path="url(#p0d9be231ef)" style="fill: #ffa500; opacity: 0.8"/>
   </g>
   <g id="patch_118">
    <path d="M -7884.02435 173.52 
L -7616.821417 173.52 
L -7616.821417 173.25141 
L -7884.02435 173.25141 
z
" clip-path="url(#p0d9be231ef)" style="fill: #ffa500; opacity: 0.8"/>
   </g>
   <g id="patch_119">
    <path d="M -7616.821417 173.52 
L -7349.618484 173.52 
L -7349.618484 173.17467 
L -7616.821417 173.17467 
z
" clip-path="url(#p0d9be231ef)" style="fill: #ffa500; opacity: 0.8"/>
   </g>
   <g id="patch_120">
    <path d="M -7349.618484 173.52 
L -7082.415552 173.52 
L -7082.415552 173.32815 
L -7349.618484 173.32815 
z
" clip-path="url(#p0d9be231ef)" style="fill: #ffa500; opacity: 0.8"/>
   </g>
   <g id="patch_121">
    <path d="M -7082.415552 173.52 
L -6815.212619 173.52 
L -6815.212619 173.36652 
L -7082.415552 173.36652 
z
" clip-path="url(#p0d9be231ef)" style="fill: #ffa500; opacity: 0.8"/>
   </g>
   <g id="patch_122">
    <path d="M -6815.212619 173.52 
L -6548.009686 173.52 
L -6548.009686 173.40489 
L -6815.212619 173.40489 
z
" clip-path="url(#p0d9be231ef)" style="fill: #ffa500; opacity: 0.8"/>
   </g>
   <g id="patch_123">
    <path d="M -6548.009686 173.52 
L -6280.806753 173.52 
L -6280.806753 173.40489 
L -6548.009686 173.40489 
z
" clip-path="url(#p0d9be231ef)" style="fill: #ffa500; opacity: 0.8"/>
   </g>
   <g id="patch_124">
    <path d="M -6280.806753 173.52 
L -6013.60382 173.52 
L -6013.60382 173.28978 
L -6280.806753 173.28978 
z
" clip-path="url(#p0d9be231ef)" style="fill: #ffa500; opacity: 0.8"/>
   </g>
   <g id="patch_125">
    <path d="M -6013.60382 173.52 
L -5746.400887 173.52 
L -5746.400887 173.28978 
L -6013.60382 173.28978 
z
" clip-path="url(#p0d9be231ef)" style="fill: #ffa500; opacity: 0.8"/>
   </g>
   <g id="patch_126">
    <path d="M -5746.400887 173.52 
L -5479.197955 173.52 
L -5479.197955 173.28978 
L -5746.400887 173.28978 
z
" clip-path="url(#p0d9be231ef)" style="fill: #ffa500; opacity: 0.8"/>
   </g>
   <g id="patch_127">
    <path d="M -5479.197955 173.52 
L -5211.995022 173.52 
L -5211.995022 173.36652 
L -5479.197955 173.36652 
z
" clip-path="url(#p0d9be231ef)" style="fill: #ffa500; opacity: 0.8"/>
   </g>
   <g id="patch_128">
    <path d="M -5211.995022 173.52 
L -4944.792089 173.52 
L -4944.792089 173.44326 
L -5211.995022 173.44326 
z
" clip-path="url(#p0d9be231ef)" style="fill: #ffa500; opacity: 0.8"/>
   </g>
   <g id="patch_129">
    <path d="M -4944.792089 173.52 
L -4677.589156 173.52 
L -4677.589156 173.17467 
L -4944.792089 173.17467 
z
" clip-path="url(#p0d9be231ef)" style="fill: #ffa500; opacity: 0.8"/>
   </g>
   <g id="patch_130">
    <path d="M -4677.589156 173.52 
L -4410.386223 173.52 
L -4410.386223 173.36652 
L -4677.589156 173.36652 
z
" clip-path="url(#p0d9be231ef)" style="fill: #ffa500; opacity: 0.8"/>
   </g>
   <g id="patch_131">
    <path d="M -4410.386223 173.52 
L -4143.18329 173.52 
L -4143.18329 173.21304 
L -4410.386223 173.21304 
z
" clip-path="url(#p0d9be231ef)" style="fill: #ffa500; opacity: 0.8"/>
   </g>
   <g id="patch_132">
    <path d="M -4143.18329 173.52 
L -3875.980357 173.52 
L -3875.980357 173.25141 
L -4143.18329 173.25141 
z
" clip-path="url(#p0d9be231ef)" style="fill: #ffa500; opacity: 0.8"/>
   </g>
   <g id="patch_133">
    <path d="M -3875.980357 173.52 
L -3608.777425 173.52 
L -3608.777425 173.32815 
L -3875.980357 173.32815 
z
" clip-path="url(#p0d9be231ef)" style="fill: #ffa500; opacity: 0.8"/>
   </g>
   <g id="patch_134">
    <path d="M -3608.777425 173.52 
L -3341.574492 173.52 
L -3341.574492 173.25141 
L -3608.777425 173.25141 
z
" clip-path="url(#p0d9be231ef)" style="fill: #ffa500; opacity: 0.8"/>
   </g>
   <g id="patch_135">
    <path d="M -3341.574492 173.52 
L -3074.371559 173.52 
L -3074.371559 173.1363 
L -3341.574492 173.1363 
z
" clip-path="url(#p0d9be231ef)" style="fill: #ffa500; opacity: 0.8"/>
   </g>
   <g id="patch_136">
    <path d="M -3074.371559 173.52 
L -2807.168626 173.52 
L -2807.168626 173.28978 
L -3074.371559 173.28978 
z
" clip-path="url(#p0d9be231ef)" style="fill: #ffa500; opacity: 0.8"/>
   </g>
   <g id="patch_137">
    <path d="M -2807.168626 173.52 
L -2539.965693 173.52 
L -2539.965693 173.1363 
L -2807.168626 173.1363 
z
" clip-path="url(#p0d9be231ef)" style="fill: #ffa500; opacity: 0.8"/>
   </g>
   <g id="patch_138">
    <path d="M -2539.965693 173.52 
L -2272.76276 173.52 
L -2272.76276 173.05956 
L -2539.965693 173.05956 
z
" clip-path="url(#p0d9be231ef)" style="fill: #ffa500; opacity: 0.8"/>
   </g>
   <g id="patch_139">
    <path d="M -2272.76276 173.52 
L -2005.559828 173.52 
L -2005.559828 173.28978 
L -2272.76276 173.28978 
z
" clip-path="url(#p0d9be231ef)" style="fill: #ffa500; opacity: 0.8"/>
   </g>
   <g id="patch_140">
    <path d="M -2005.559828 173.52 
L -1738.356895 173.52 
L -1738.356895 173.09793 
L -2005.559828 173.09793 
z
" clip-path="url(#p0d9be231ef)" style="fill: #ffa500; opacity: 0.8"/>
   </g>
   <g id="patch_141">
    <path d="M -1738.356895 173.52 
L -1471.153962 173.52 
L -1471.153962 173.21304 
L -1738.356895 173.21304 
z
" clip-path="url(#p0d9be231ef)" style="fill: #ffa500; opacity: 0.8"/>
   </g>
   <g id="patch_142">
    <path d="M -1471.153962 173.52 
L -1203.951029 173.52 
L -1203.951029 172.7526 
L -1471.153962 172.7526 
z
" clip-path="url(#p0d9be231ef)" style="fill: #ffa500; opacity: 0.8"/>
   </g>
   <g id="patch_143">
    <path d="M -1203.951029 173.52 
L -936.748096 173.52 
L -936.748096 172.7526 
L -1203.951029 172.7526 
z
" clip-path="url(#p0d9be231ef)" style="fill: #ffa500; opacity: 0.8"/>
   </g>
   <g id="patch_144">
    <path d="M -936.748096 173.52 
L -669.545163 173.52 
L -669.545163 172.7526 
L -936.748096 172.7526 
z
" clip-path="url(#p0d9be231ef)" style="fill: #ffa500; opacity: 0.8"/>
   </g>
   <g id="patch_145">
    <path d="M -669.545163 173.52 
L -402.342231 173.52 
L -402.342231 172.90608 
L -669.545163 172.90608 
z
" clip-path="url(#p0d9be231ef)" style="fill: #ffa500; opacity: 0.8"/>
   </g>
   <g id="patch_146">
    <path d="M -402.342231 173.52 
L -135.139298 173.52 
L -135.139298 172.599119 
L -402.342231 172.599119 
z
" clip-path="url(#p0d9be231ef)" style="fill: #ffa500; opacity: 0.8"/>
   </g>
   <g id="patch_147">
    <path d="M -135.139298 173.52 
L 132.063635 173.52 
L 132.063635 171.793349 
L -135.139298 171.793349 
z
" clip-path="url(#p0d9be231ef)" style="fill: #ffa500; opacity: 0.8"/>
   </g>
   <g id="patch_148">
    <path d="M 132.063635 173.52 
L 399.266568 173.52 
L 399.266568 165.922736 
L 132.063635 165.922736 
z
" clip-path="url(#p0d9be231ef)" style="fill: #ffa500; opacity: 0.8"/>
   </g>
   <g id="matplotlib.axis_1">
    <g id="xtick_1">
     <g id="line2d_1">
      <defs>
       <path id="m8a8c568fbb" d="M 0 0 
L 0 3.5 
" style="stroke: #000000; stroke-width: 0.8"/>
      </defs>
      <g>
       <use xlink:href="#m8a8c568fbb" x="50.14375" y="173.52" style="stroke: #000000; stroke-width: 0.8"/>
      </g>
     </g>
     <g id="text_1">
      <!-- −20.0 -->
      <g transform="translate(34.821094 188.118438) scale(0.1 -0.1)">
       <defs>
        <path id="DejaVuSans-2212" d="M 678 2272 
L 4684 2272 
L 4684 1741 
L 678 1741 
L 678 2272 
z
" transform="scale(0.015625)"/>
        <path id="DejaVuSans-32" d="M 1228 531 
L 3431 531 
L 3431 0 
L 469 0 
L 469 531 
Q 828 903 1448 1529 
Q 2069 2156 2228 2338 
Q 2531 2678 2651 2914 
Q 2772 3150 2772 3378 
Q 2772 3750 2511 3984 
Q 2250 4219 1831 4219 
Q 1534 4219 1204 4116 
Q 875 4013 500 3803 
L 500 4441 
Q 881 4594 1212 4672 
Q 1544 4750 1819 4750 
Q 2544 4750 2975 4387 
Q 3406 4025 3406 3419 
Q 3406 3131 3298 2873 
Q 3191 2616 2906 2266 
Q 2828 2175 2409 1742 
Q 1991 1309 1228 531 
z
" transform="scale(0.015625)"/>
        <path id="DejaVuSans-30" d="M 2034 4250 
Q 1547 4250 1301 3770 
Q 1056 3291 1056 2328 
Q 1056 1369 1301 889 
Q 1547 409 2034 409 
Q 2525 409 2770 889 
Q 3016 1369 3016 2328 
Q 3016 3291 2770 3770 
Q 2525 4250 2034 4250 
z
M 2034 4750 
Q 2819 4750 3233 4129 
Q 3647 3509 3647 2328 
Q 3647 1150 3233 529 
Q 2819 -91 2034 -91 
Q 1250 -91 836 529 
Q 422 1150 422 2328 
Q 422 3509 836 4129 
Q 1250 4750 2034 4750 
z
" transform="scale(0.015625)"/>
        <path id="DejaVuSans-2e" d="M 684 794 
L 1344 794 
L 1344 0 
L 684 0 
L 684 794 
z
" transform="scale(0.015625)"/>
       </defs>
       <use xlink:href="#DejaVuSans-2212"/>
       <use xlink:href="#DejaVuSans-32" x="83.789062"/>
       <use xlink:href="#DejaVuSans-30" x="147.412109"/>
       <use xlink:href="#DejaVuSans-2e" x="211.035156"/>
       <use xlink:href="#DejaVuSans-30" x="242.822266"/>
      </g>
     </g>
    </g>
    <g id="xtick_2">
     <g id="line2d_2">
      <g>
       <use xlink:href="#m8a8c568fbb" x="98.96875" y="173.52" style="stroke: #000000; stroke-width: 0.8"/>
      </g>
     </g>
     <g id="text_2">
      <!-- −17.5 -->
      <g transform="translate(83.646094 188.118438) scale(0.1 -0.1)">
       <defs>
        <path id="DejaVuSans-31" d="M 794 531 
L 1825 531 
L 1825 4091 
L 703 3866 
L 703 4441 
L 1819 4666 
L 2450 4666 
L 2450 531 
L 3481 531 
L 3481 0 
L 794 0 
L 794 531 
z
" transform="scale(0.015625)"/>
        <path id="DejaVuSans-37" d="M 525 4666 
L 3525 4666 
L 3525 4397 
L 1831 0 
L 1172 0 
L 2766 4134 
L 525 4134 
L 525 4666 
z
" transform="scale(0.015625)"/>
        <path id="DejaVuSans-35" d="M 691 4666 
L 3169 4666 
L 3169 4134 
L 1269 4134 
L 1269 2991 
Q 1406 3038 1543 3061 
Q 1681 3084 1819 3084 
Q 2600 3084 3056 2656 
Q 3513 2228 3513 1497 
Q 3513 744 3044 326 
Q 2575 -91 1722 -91 
Q 1428 -91 1123 -41 
Q 819 9 494 109 
L 494 744 
Q 775 591 1075 516 
Q 1375 441 1709 441 
Q 2250 441 2565 725 
Q 2881 1009 2881 1497 
Q 2881 1984 2565 2268 
Q 2250 2553 1709 2553 
Q 1456 2553 1204 2497 
Q 953 2441 691 2322 
L 691 4666 
z
" transform="scale(0.015625)"/>
       </defs>
       <use xlink:href="#DejaVuSans-2212"/>
       <use xlink:href="#DejaVuSans-31" x="83.789062"/>
       <use xlink:href="#DejaVuSans-37" x="147.412109"/>
       <use xlink:href="#DejaVuSans-2e" x="211.035156"/>
       <use xlink:href="#DejaVuSans-35" x="242.822266"/>
      </g>
     </g>
    </g>
    <g id="xtick_3">
     <g id="line2d_3">
      <g>
       <use xlink:href="#m8a8c568fbb" x="147.79375" y="173.52" style="stroke: #000000; stroke-width: 0.8"/>
      </g>
     </g>
     <g id="text_3">
      <!-- −15.0 -->
      <g transform="translate(132.471094 188.118438) scale(0.1 -0.1)">
       <use xlink:href="#DejaVuSans-2212"/>
       <use xlink:href="#DejaVuSans-31" x="83.789062"/>
       <use xlink:href="#DejaVuSans-35" x="147.412109"/>
       <use xlink:href="#DejaVuSans-2e" x="211.035156"/>
       <use xlink:href="#DejaVuSans-30" x="242.822266"/>
      </g>
     </g>
    </g>
    <g id="xtick_4">
     <g id="line2d_4">
      <g>
       <use xlink:href="#m8a8c568fbb" x="196.61875" y="173.52" style="stroke: #000000; stroke-width: 0.8"/>
      </g>
     </g>
     <g id="text_4">
      <!-- −12.5 -->
      <g transform="translate(181.296094 188.118438) scale(0.1 -0.1)">
       <use xlink:href="#DejaVuSans-2212"/>
       <use xlink:href="#DejaVuSans-31" x="83.789062"/>
       <use xlink:href="#DejaVuSans-32" x="147.412109"/>
       <use xlink:href="#DejaVuSans-2e" x="211.035156"/>
       <use xlink:href="#DejaVuSans-35" x="242.822266"/>
      </g>
     </g>
    </g>
    <g id="xtick_5">
     <g id="line2d_5">
      <g>
       <use xlink:href="#m8a8c568fbb" x="245.44375" y="173.52" style="stroke: #000000; stroke-width: 0.8"/>
      </g>
     </g>
     <g id="text_5">
      <!-- −10.0 -->
      <g transform="translate(230.121094 188.118438) scale(0.1 -0.1)">
       <use xlink:href="#DejaVuSans-2212"/>
       <use xlink:href="#DejaVuSans-31" x="83.789062"/>
       <use xlink:href="#DejaVuSans-30" x="147.412109"/>
       <use xlink:href="#DejaVuSans-2e" x="211.035156"/>
       <use xlink:href="#DejaVuSans-30" x="242.822266"/>
      </g>
     </g>
    </g>
    <g id="xtick_6">
     <g id="line2d_6">
      <g>
       <use xlink:href="#m8a8c568fbb" x="294.26875" y="173.52" style="stroke: #000000; stroke-width: 0.8"/>
      </g>
     </g>
     <g id="text_6">
      <!-- −7.5 -->
      <g transform="translate(282.127344 188.118438) scale(0.1 -0.1)">
       <use xlink:href="#DejaVuSans-2212"/>
       <use xlink:href="#DejaVuSans-37" x="83.789062"/>
       <use xlink:href="#DejaVuSans-2e" x="147.412109"/>
       <use xlink:href="#DejaVuSans-35" x="179.199219"/>
      </g>
     </g>
    </g>
    <g id="xtick_7">
     <g id="line2d_7">
      <g>
       <use xlink:href="#m8a8c568fbb" x="343.09375" y="173.52" style="stroke: #000000; stroke-width: 0.8"/>
      </g>
     </g>
     <g id="text_7">
      <!-- −5.0 -->
      <g transform="translate(330.952344 188.118438) scale(0.1 -0.1)">
       <use xlink:href="#DejaVuSans-2212"/>
       <use xlink:href="#DejaVuSans-35" x="83.789062"/>
       <use xlink:href="#DejaVuSans-2e" x="147.412109"/>
       <use xlink:href="#DejaVuSans-30" x="179.199219"/>
      </g>
     </g>
    </g>
    <g id="xtick_8">
     <g id="line2d_8">
      <g>
       <use xlink:href="#m8a8c568fbb" x="391.91875" y="173.52" style="stroke: #000000; stroke-width: 0.8"/>
      </g>
     </g>
     <g id="text_8">
      <!-- −2.5 -->
      <g transform="translate(379.777344 188.118438) scale(0.1 -0.1)">
       <use xlink:href="#DejaVuSans-2212"/>
       <use xlink:href="#DejaVuSans-32" x="83.789062"/>
       <use xlink:href="#DejaVuSans-2e" x="147.412109"/>
       <use xlink:href="#DejaVuSans-35" x="179.199219"/>
      </g>
     </g>
    </g>
    <g id="xtick_9">
     <g id="line2d_9">
      <g>
       <use xlink:href="#m8a8c568fbb" x="440.74375" y="173.52" style="stroke: #000000; stroke-width: 0.8"/>
      </g>
     </g>
     <g id="text_9">
      <!-- 0.0 -->
      <g transform="translate(432.792188 188.118438) scale(0.1 -0.1)">
       <use xlink:href="#DejaVuSans-30"/>
       <use xlink:href="#DejaVuSans-2e" x="63.623047"/>
       <use xlink:href="#DejaVuSans-30" x="95.410156"/>
      </g>
     </g>
    </g>
    <g id="text_10">
     <!-- reward -->
     <g transform="translate(228.128906 201.796563) scale(0.1 -0.1)">
      <defs>
       <path id="DejaVuSans-72" d="M 2631 2963 
Q 2534 3019 2420 3045 
Q 2306 3072 2169 3072 
Q 1681 3072 1420 2755 
Q 1159 2438 1159 1844 
L 1159 0 
L 581 0 
L 581 3500 
L 1159 3500 
L 1159 2956 
Q 1341 3275 1631 3429 
Q 1922 3584 2338 3584 
Q 2397 3584 2469 3576 
Q 2541 3569 2628 3553 
L 2631 2963 
z
" transform="scale(0.015625)"/>
       <path id="DejaVuSans-65" d="M 3597 1894 
L 3597 1613 
L 953 1613 
Q 991 1019 1311 708 
Q 1631 397 2203 397 
Q 2534 397 2845 478 
Q 3156 559 3463 722 
L 3463 178 
Q 3153 47 2828 -22 
Q 2503 -91 2169 -91 
Q 1331 -91 842 396 
Q 353 884 353 1716 
Q 353 2575 817 3079 
Q 1281 3584 2069 3584 
Q 2775 3584 3186 3129 
Q 3597 2675 3597 1894 
z
M 3022 2063 
Q 3016 2534 2758 2815 
Q 2500 3097 2075 3097 
Q 1594 3097 1305 2825 
Q 1016 2553 972 2059 
L 3022 2063 
z
" transform="scale(0.015625)"/>
       <path id="DejaVuSans-77" d="M 269 3500 
L 844 3500 
L 1563 769 
L 2278 3500 
L 2956 3500 
L 3675 769 
L 4391 3500 
L 4966 3500 
L 4050 0 
L 3372 0 
L 2619 2869 
L 1863 0 
L 1184 0 
L 269 3500 
z
" transform="scale(0.015625)"/>
       <path id="DejaVuSans-61" d="M 2194 1759 
Q 1497 1759 1228 1600 
Q 959 1441 959 1056 
Q 959 750 1161 570 
Q 1363 391 1709 391 
Q 2188 391 2477 730 
Q 2766 1069 2766 1631 
L 2766 1759 
L 2194 1759 
z
M 3341 1997 
L 3341 0 
L 2766 0 
L 2766 531 
Q 2569 213 2275 61 
Q 1981 -91 1556 -91 
Q 1019 -91 701 211 
Q 384 513 384 1019 
Q 384 1609 779 1909 
Q 1175 2209 1959 2209 
L 2766 2209 
L 2766 2266 
Q 2766 2663 2505 2880 
Q 2244 3097 1772 3097 
Q 1472 3097 1187 3025 
Q 903 2953 641 2809 
L 641 3341 
Q 956 3463 1253 3523 
Q 1550 3584 1831 3584 
Q 2591 3584 2966 3190 
Q 3341 2797 3341 1997 
z
" transform="scale(0.015625)"/>
       <path id="DejaVuSans-64" d="M 2906 2969 
L 2906 4863 
L 3481 4863 
L 3481 0 
L 2906 0 
L 2906 525 
Q 2725 213 2448 61 
Q 2172 -91 1784 -91 
Q 1150 -91 751 415 
Q 353 922 353 1747 
Q 353 2572 751 3078 
Q 1150 3584 1784 3584 
Q 2172 3584 2448 3432 
Q 2725 3281 2906 2969 
z
M 947 1747 
Q 947 1113 1208 752 
Q 1469 391 1925 391 
Q 2381 391 2643 752 
Q 2906 1113 2906 1747 
Q 2906 2381 2643 2742 
Q 2381 3103 1925 3103 
Q 1469 3103 1208 2742 
Q 947 2381 947 1747 
z
" transform="scale(0.015625)"/>
      </defs>
      <use xlink:href="#DejaVuSans-72"/>
      <use xlink:href="#DejaVuSans-65" x="38.863281"/>
      <use xlink:href="#DejaVuSans-77" x="100.386719"/>
      <use xlink:href="#DejaVuSans-61" x="182.173828"/>
      <use xlink:href="#DejaVuSans-72" x="243.453125"/>
      <use xlink:href="#DejaVuSans-64" x="282.816406"/>
     </g>
    </g>
   </g>
   <g id="matplotlib.axis_2">
    <g id="ytick_1">
     <g id="line2d_10">
      <defs>
       <path id="m8db4ee1949" d="M 0 0 
L -3.5 0 
" style="stroke: #000000; stroke-width: 0.8"/>
      </defs>
      <g>
       <use xlink:href="#m8db4ee1949" x="50.14375" y="173.52" style="stroke: #000000; stroke-width: 0.8"/>
      </g>
     </g>
     <g id="text_11">
      <!-- 0.00 -->
      <g transform="translate(20.878125 177.319219) scale(0.1 -0.1)">
       <use xlink:href="#DejaVuSans-30"/>
       <use xlink:href="#DejaVuSans-2e" x="63.623047"/>
       <use xlink:href="#DejaVuSans-30" x="95.410156"/>
       <use xlink:href="#DejaVuSans-30" x="159.033203"/>
      </g>
     </g>
    </g>
    <g id="ytick_2">
     <g id="line2d_11">
      <g>
       <use xlink:href="#m8db4ee1949" x="50.14375" y="148.321641" style="stroke: #000000; stroke-width: 0.8"/>
      </g>
     </g>
     <g id="text_12">
      <!-- 0.05 -->
      <g transform="translate(20.878125 152.12086) scale(0.1 -0.1)">
       <use xlink:href="#DejaVuSans-30"/>
       <use xlink:href="#DejaVuSans-2e" x="63.623047"/>
       <use xlink:href="#DejaVuSans-30" x="95.410156"/>
       <use xlink:href="#DejaVuSans-35" x="159.033203"/>
      </g>
     </g>
    </g>
    <g id="ytick_3">
     <g id="line2d_12">
      <g>
       <use xlink:href="#m8db4ee1949" x="50.14375" y="123.123283" style="stroke: #000000; stroke-width: 0.8"/>
      </g>
     </g>
     <g id="text_13">
      <!-- 0.10 -->
      <g transform="translate(20.878125 126.922502) scale(0.1 -0.1)">
       <use xlink:href="#DejaVuSans-30"/>
       <use xlink:href="#DejaVuSans-2e" x="63.623047"/>
       <use xlink:href="#DejaVuSans-31" x="95.410156"/>
       <use xlink:href="#DejaVuSans-30" x="159.033203"/>
      </g>
     </g>
    </g>
    <g id="ytick_4">
     <g id="line2d_13">
      <g>
       <use xlink:href="#m8db4ee1949" x="50.14375" y="97.924924" style="stroke: #000000; stroke-width: 0.8"/>
      </g>
     </g>
     <g id="text_14">
      <!-- 0.15 -->
      <g transform="translate(20.878125 101.724143) scale(0.1 -0.1)">
       <use xlink:href="#DejaVuSans-30"/>
       <use xlink:href="#DejaVuSans-2e" x="63.623047"/>
       <use xlink:href="#DejaVuSans-31" x="95.410156"/>
       <use xlink:href="#DejaVuSans-35" x="159.033203"/>
      </g>
     </g>
    </g>
    <g id="ytick_5">
     <g id="line2d_14">
      <g>
       <use xlink:href="#m8db4ee1949" x="50.14375" y="72.726566" style="stroke: #000000; stroke-width: 0.8"/>
      </g>
     </g>
     <g id="text_15">
      <!-- 0.20 -->
      <g transform="translate(20.878125 76.525784) scale(0.1 -0.1)">
       <use xlink:href="#DejaVuSans-30"/>
       <use xlink:href="#DejaVuSans-2e" x="63.623047"/>
       <use xlink:href="#DejaVuSans-32" x="95.410156"/>
       <use xlink:href="#DejaVuSans-30" x="159.033203"/>
      </g>
     </g>
    </g>
    <g id="ytick_6">
     <g id="line2d_15">
      <g>
       <use xlink:href="#m8db4ee1949" x="50.14375" y="47.528207" style="stroke: #000000; stroke-width: 0.8"/>
      </g>
     </g>
     <g id="text_16">
      <!-- 0.25 -->
      <g transform="translate(20.878125 51.327426) scale(0.1 -0.1)">
       <use xlink:href="#DejaVuSans-30"/>
       <use xlink:href="#DejaVuSans-2e" x="63.623047"/>
       <use xlink:href="#DejaVuSans-32" x="95.410156"/>
       <use xlink:href="#DejaVuSans-35" x="159.033203"/>
      </g>
     </g>
    </g>
    <g id="ytick_7">
     <g id="line2d_16">
      <g>
       <use xlink:href="#m8db4ee1949" x="50.14375" y="22.329848" style="stroke: #000000; stroke-width: 0.8"/>
      </g>
     </g>
     <g id="text_17">
      <!-- 0.30 -->
      <g transform="translate(20.878125 26.129067) scale(0.1 -0.1)">
       <defs>
        <path id="DejaVuSans-33" d="M 2597 2516 
Q 3050 2419 3304 2112 
Q 3559 1806 3559 1356 
Q 3559 666 3084 287 
Q 2609 -91 1734 -91 
Q 1441 -91 1130 -33 
Q 819 25 488 141 
L 488 750 
Q 750 597 1062 519 
Q 1375 441 1716 441 
Q 2309 441 2620 675 
Q 2931 909 2931 1356 
Q 2931 1769 2642 2001 
Q 2353 2234 1838 2234 
L 1294 2234 
L 1294 2753 
L 1863 2753 
Q 2328 2753 2575 2939 
Q 2822 3125 2822 3475 
Q 2822 3834 2567 4026 
Q 2313 4219 1838 4219 
Q 1578 4219 1281 4162 
Q 984 4106 628 3988 
L 628 4550 
Q 988 4650 1302 4700 
Q 1616 4750 1894 4750 
Q 2613 4750 3031 4423 
Q 3450 4097 3450 3541 
Q 3450 3153 3228 2886 
Q 3006 2619 2597 2516 
z
" transform="scale(0.015625)"/>
       </defs>
       <use xlink:href="#DejaVuSans-30"/>
       <use xlink:href="#DejaVuSans-2e" x="63.623047"/>
       <use xlink:href="#DejaVuSans-33" x="95.410156"/>
       <use xlink:href="#DejaVuSans-30" x="159.033203"/>
      </g>
     </g>
    </g>
    <g id="text_18">
     <!-- probability -->
     <g transform="translate(14.798438 117.035781) rotate(-90) scale(0.1 -0.1)">
      <defs>
       <path id="DejaVuSans-70" d="M 1159 525 
L 1159 -1331 
L 581 -1331 
L 581 3500 
L 1159 3500 
L 1159 2969 
Q 1341 3281 1617 3432 
Q 1894 3584 2278 3584 
Q 2916 3584 3314 3078 
Q 3713 2572 3713 1747 
Q 3713 922 3314 415 
Q 2916 -91 2278 -91 
Q 1894 -91 1617 61 
Q 1341 213 1159 525 
z
M 3116 1747 
Q 3116 2381 2855 2742 
Q 2594 3103 2138 3103 
Q 1681 3103 1420 2742 
Q 1159 2381 1159 1747 
Q 1159 1113 1420 752 
Q 1681 391 2138 391 
Q 2594 391 2855 752 
Q 3116 1113 3116 1747 
z
" transform="scale(0.015625)"/>
       <path id="DejaVuSans-6f" d="M 1959 3097 
Q 1497 3097 1228 2736 
Q 959 2375 959 1747 
Q 959 1119 1226 758 
Q 1494 397 1959 397 
Q 2419 397 2687 759 
Q 2956 1122 2956 1747 
Q 2956 2369 2687 2733 
Q 2419 3097 1959 3097 
z
M 1959 3584 
Q 2709 3584 3137 3096 
Q 3566 2609 3566 1747 
Q 3566 888 3137 398 
Q 2709 -91 1959 -91 
Q 1206 -91 779 398 
Q 353 888 353 1747 
Q 353 2609 779 3096 
Q 1206 3584 1959 3584 
z
" transform="scale(0.015625)"/>
       <path id="DejaVuSans-62" d="M 3116 1747 
Q 3116 2381 2855 2742 
Q 2594 3103 2138 3103 
Q 1681 3103 1420 2742 
Q 1159 2381 1159 1747 
Q 1159 1113 1420 752 
Q 1681 391 2138 391 
Q 2594 391 2855 752 
Q 3116 1113 3116 1747 
z
M 1159 2969 
Q 1341 3281 1617 3432 
Q 1894 3584 2278 3584 
Q 2916 3584 3314 3078 
Q 3713 2572 3713 1747 
Q 3713 922 3314 415 
Q 2916 -91 2278 -91 
Q 1894 -91 1617 61 
Q 1341 213 1159 525 
L 1159 0 
L 581 0 
L 581 4863 
L 1159 4863 
L 1159 2969 
z
" transform="scale(0.015625)"/>
       <path id="DejaVuSans-69" d="M 603 3500 
L 1178 3500 
L 1178 0 
L 603 0 
L 603 3500 
z
M 603 4863 
L 1178 4863 
L 1178 4134 
L 603 4134 
L 603 4863 
z
" transform="scale(0.015625)"/>
       <path id="DejaVuSans-6c" d="M 603 4863 
L 1178 4863 
L 1178 0 
L 603 0 
L 603 4863 
z
" transform="scale(0.015625)"/>
       <path id="DejaVuSans-74" d="M 1172 4494 
L 1172 3500 
L 2356 3500 
L 2356 3053 
L 1172 3053 
L 1172 1153 
Q 1172 725 1289 603 
Q 1406 481 1766 481 
L 2356 481 
L 2356 0 
L 1766 0 
Q 1100 0 847 248 
Q 594 497 594 1153 
L 594 3053 
L 172 3053 
L 172 3500 
L 594 3500 
L 594 4494 
L 1172 4494 
z
" transform="scale(0.015625)"/>
       <path id="DejaVuSans-79" d="M 2059 -325 
Q 1816 -950 1584 -1140 
Q 1353 -1331 966 -1331 
L 506 -1331 
L 506 -850 
L 844 -850 
Q 1081 -850 1212 -737 
Q 1344 -625 1503 -206 
L 1606 56 
L 191 3500 
L 800 3500 
L 1894 763 
L 2988 3500 
L 3597 3500 
L 2059 -325 
z
" transform="scale(0.015625)"/>
      </defs>
      <use xlink:href="#DejaVuSans-70"/>
      <use xlink:href="#DejaVuSans-72" x="63.476562"/>
      <use xlink:href="#DejaVuSans-6f" x="102.339844"/>
      <use xlink:href="#DejaVuSans-62" x="163.521484"/>
      <use xlink:href="#DejaVuSans-61" x="226.998047"/>
      <use xlink:href="#DejaVuSans-62" x="288.277344"/>
      <use xlink:href="#DejaVuSans-69" x="351.753906"/>
      <use xlink:href="#DejaVuSans-6c" x="379.537109"/>
      <use xlink:href="#DejaVuSans-69" x="407.320312"/>
      <use xlink:href="#DejaVuSans-74" x="435.103516"/>
      <use xlink:href="#DejaVuSans-79" x="474.3125"/>
     </g>
    </g>
   </g>
   <g id="patch_149">
    <path d="M 50.14375 173.52 
L 50.14375 7.2 
" style="fill: none; stroke: #000000; stroke-width: 0.8; stroke-linejoin: miter; stroke-linecap: square"/>
   </g>
   <g id="patch_150">
    <path d="M 440.74375 173.52 
L 440.74375 7.2 
" style="fill: none; stroke: #000000; stroke-width: 0.8; stroke-linejoin: miter; stroke-linecap: square"/>
   </g>
   <g id="patch_151">
    <path d="M 50.14375 173.52 
L 440.74375 173.52 
" style="fill: none; stroke: #000000; stroke-width: 0.8; stroke-linejoin: miter; stroke-linecap: square"/>
   </g>
   <g id="patch_152">
    <path d="M 50.14375 7.2 
L 440.74375 7.2 
" style="fill: none; stroke: #000000; stroke-width: 0.8; stroke-linejoin: miter; stroke-linecap: square"/>
   </g>
   <g id="legend_1">
    <g id="patch_153">
     <path d="M 57.14375 73.9125 
L 126.470313 73.9125 
Q 128.470313 73.9125 128.470313 71.9125 
L 128.470313 14.2 
Q 128.470313 12.2 126.470313 12.2 
L 57.14375 12.2 
Q 55.14375 12.2 55.14375 14.2 
L 55.14375 71.9125 
Q 55.14375 73.9125 57.14375 73.9125 
z
" style="fill: #ffffff; opacity: 0.8; stroke: #cccccc; stroke-linejoin: miter"/>
    </g>
    <g id="patch_154">
     <path d="M 59.14375 23.798438 
L 79.14375 23.798438 
L 79.14375 16.798438 
L 59.14375 16.798438 
z
" style="fill: #b22222; opacity: 0.8"/>
    </g>
    <g id="text_19">
     <!-- HL -->
     <g transform="translate(87.14375 23.798438) scale(0.1 -0.1)">
      <defs>
       <path id="DejaVuSans-48" d="M 628 4666 
L 1259 4666 
L 1259 2753 
L 3553 2753 
L 3553 4666 
L 4184 4666 
L 4184 0 
L 3553 0 
L 3553 2222 
L 1259 2222 
L 1259 0 
L 628 0 
L 628 4666 
z
" transform="scale(0.015625)"/>
       <path id="DejaVuSans-4c" d="M 628 4666 
L 1259 4666 
L 1259 531 
L 3531 531 
L 3531 0 
L 628 0 
L 628 4666 
z
" transform="scale(0.015625)"/>
      </defs>
      <use xlink:href="#DejaVuSans-48"/>
      <use xlink:href="#DejaVuSans-4c" x="75.195312"/>
     </g>
    </g>
    <g id="patch_155">
     <path d="M 59.14375 38.476562 
L 79.14375 38.476562 
L 79.14375 31.476562 
L 59.14375 31.476562 
z
" style="fill: #0000ff; opacity: 0.8"/>
    </g>
    <g id="text_20">
     <!-- SAC -->
     <g transform="translate(87.14375 38.476562) scale(0.1 -0.1)">
      <defs>
       <path id="DejaVuSans-53" d="M 3425 4513 
L 3425 3897 
Q 3066 4069 2747 4153 
Q 2428 4238 2131 4238 
Q 1616 4238 1336 4038 
Q 1056 3838 1056 3469 
Q 1056 3159 1242 3001 
Q 1428 2844 1947 2747 
L 2328 2669 
Q 3034 2534 3370 2195 
Q 3706 1856 3706 1288 
Q 3706 609 3251 259 
Q 2797 -91 1919 -91 
Q 1588 -91 1214 -16 
Q 841 59 441 206 
L 441 856 
Q 825 641 1194 531 
Q 1563 422 1919 422 
Q 2459 422 2753 634 
Q 3047 847 3047 1241 
Q 3047 1584 2836 1778 
Q 2625 1972 2144 2069 
L 1759 2144 
Q 1053 2284 737 2584 
Q 422 2884 422 3419 
Q 422 4038 858 4394 
Q 1294 4750 2059 4750 
Q 2388 4750 2728 4690 
Q 3069 4631 3425 4513 
z
" transform="scale(0.015625)"/>
       <path id="DejaVuSans-41" d="M 2188 4044 
L 1331 1722 
L 3047 1722 
L 2188 4044 
z
M 1831 4666 
L 2547 4666 
L 4325 0 
L 3669 0 
L 3244 1197 
L 1141 1197 
L 716 0 
L 50 0 
L 1831 4666 
z
" transform="scale(0.015625)"/>
       <path id="DejaVuSans-43" d="M 4122 4306 
L 4122 3641 
Q 3803 3938 3442 4084 
Q 3081 4231 2675 4231 
Q 1875 4231 1450 3742 
Q 1025 3253 1025 2328 
Q 1025 1406 1450 917 
Q 1875 428 2675 428 
Q 3081 428 3442 575 
Q 3803 722 4122 1019 
L 4122 359 
Q 3791 134 3420 21 
Q 3050 -91 2638 -91 
Q 1578 -91 968 557 
Q 359 1206 359 2328 
Q 359 3453 968 4101 
Q 1578 4750 2638 4750 
Q 3056 4750 3426 4639 
Q 3797 4528 4122 4306 
z
" transform="scale(0.015625)"/>
      </defs>
      <use xlink:href="#DejaVuSans-53"/>
      <use xlink:href="#DejaVuSans-41" x="65.351562"/>
      <use xlink:href="#DejaVuSans-43" x="132.009766"/>
     </g>
    </g>
    <g id="patch_156">
     <path d="M 59.14375 53.154687 
L 79.14375 53.154687 
L 79.14375 46.154687 
L 59.14375 46.154687 
z
" style="fill: #008000; opacity: 0.8"/>
    </g>
    <g id="text_21">
     <!-- DAgger -->
     <g transform="translate(87.14375 53.154687) scale(0.1 -0.1)">
      <defs>
       <path id="DejaVuSans-44" d="M 1259 4147 
L 1259 519 
L 2022 519 
Q 2988 519 3436 956 
Q 3884 1394 3884 2338 
Q 3884 3275 3436 3711 
Q 2988 4147 2022 4147 
L 1259 4147 
z
M 628 4666 
L 1925 4666 
Q 3281 4666 3915 4102 
Q 4550 3538 4550 2338 
Q 4550 1131 3912 565 
Q 3275 0 1925 0 
L 628 0 
L 628 4666 
z
" transform="scale(0.015625)"/>
       <path id="DejaVuSans-67" d="M 2906 1791 
Q 2906 2416 2648 2759 
Q 2391 3103 1925 3103 
Q 1463 3103 1205 2759 
Q 947 2416 947 1791 
Q 947 1169 1205 825 
Q 1463 481 1925 481 
Q 2391 481 2648 825 
Q 2906 1169 2906 1791 
z
M 3481 434 
Q 3481 -459 3084 -895 
Q 2688 -1331 1869 -1331 
Q 1566 -1331 1297 -1286 
Q 1028 -1241 775 -1147 
L 775 -588 
Q 1028 -725 1275 -790 
Q 1522 -856 1778 -856 
Q 2344 -856 2625 -561 
Q 2906 -266 2906 331 
L 2906 616 
Q 2728 306 2450 153 
Q 2172 0 1784 0 
Q 1141 0 747 490 
Q 353 981 353 1791 
Q 353 2603 747 3093 
Q 1141 3584 1784 3584 
Q 2172 3584 2450 3431 
Q 2728 3278 2906 2969 
L 2906 3500 
L 3481 3500 
L 3481 434 
z
" transform="scale(0.015625)"/>
      </defs>
      <use xlink:href="#DejaVuSans-44"/>
      <use xlink:href="#DejaVuSans-41" x="75.251953"/>
      <use xlink:href="#DejaVuSans-67" x="143.660156"/>
      <use xlink:href="#DejaVuSans-67" x="207.136719"/>
      <use xlink:href="#DejaVuSans-65" x="270.613281"/>
      <use xlink:href="#DejaVuSans-72" x="332.136719"/>
     </g>
    </g>
    <g id="patch_157">
     <path d="M 59.14375 67.832813 
L 79.14375 67.832813 
L 79.14375 60.832813 
L 59.14375 60.832813 
z
" style="fill: #ffa500; opacity: 0.8"/>
    </g>
    <g id="text_22">
     <!-- BC -->
     <g transform="translate(87.14375 67.832813) scale(0.1 -0.1)">
      <defs>
       <path id="DejaVuSans-42" d="M 1259 2228 
L 1259 519 
L 2272 519 
Q 2781 519 3026 730 
Q 3272 941 3272 1375 
Q 3272 1813 3026 2020 
Q 2781 2228 2272 2228 
L 1259 2228 
z
M 1259 4147 
L 1259 2741 
L 2194 2741 
Q 2656 2741 2882 2914 
Q 3109 3088 3109 3444 
Q 3109 3797 2882 3972 
Q 2656 4147 2194 4147 
L 1259 4147 
z
M 628 4666 
L 2241 4666 
Q 2963 4666 3353 4366 
Q 3744 4066 3744 3513 
Q 3744 3084 3544 2831 
Q 3344 2578 2956 2516 
Q 3422 2416 3680 2098 
Q 3938 1781 3938 1306 
Q 3938 681 3513 340 
Q 3088 0 2303 0 
L 628 0 
L 628 4666 
z
" transform="scale(0.015625)"/>
      </defs>
      <use xlink:href="#DejaVuSans-42"/>
      <use xlink:href="#DejaVuSans-43" x="66.853516"/>
     </g>
    </g>
   </g>
  </g>
 </g>
 <defs>
  <clipPath id="p0d9be231ef">
   <rect x="50.14375" y="7.2" width="390.6" height="166.32"/>
  </clipPath>
 </defs>
</svg>
